<svg width="176" height="52" viewBox="0 0 176 52" fill="none" xmlns="http://www.w3.org/2000/svg">
<g clip-path="url(#clip0_87_1164)">
<path d="M169.5 0H7C3.41015 0 0.5 2.91015 0.5 6.5V45.5C0.5 49.0898 3.41015 52 7 52H169.5C173.09 52 176 49.0898 176 45.5V6.5C176 2.91015 173.09 0 169.5 0Z" fill="#313333"/>
<path d="M169.5 1.04C170.948 1.04 172.337 1.61525 173.361 2.6392C174.385 3.66315 174.96 5.05192 174.96 6.5V45.5C174.96 46.9481 174.385 48.3369 173.361 49.3608C172.337 50.3848 170.948 50.96 169.5 50.96H7C5.55192 50.96 4.16315 50.3848 3.1392 49.3608C2.11525 48.3369 1.54 46.9481 1.54 45.5V6.5C1.54 5.05192 2.11525 3.66315 3.1392 2.6392C4.16315 1.61525 5.55192 1.04 7 1.04H169.5ZM169.5 0H7C5.27609 0 3.62279 0.684819 2.40381 1.90381C1.18482 3.12279 0.5 4.77609 0.5 6.5V45.5C0.5 47.2239 1.18482 48.8772 2.40381 50.0962C3.62279 51.3152 5.27609 52 7 52H169.5C171.224 52 172.877 51.3152 174.096 50.0962C175.315 48.8772 176 47.2239 176 45.5V6.5C176 4.77609 175.315 3.12279 174.096 1.90381C172.877 0.684819 171.224 0 169.5 0Z" fill="#313333"/>
<path d="M42.2468 25.107C42.2108 21.1149 45.5156 19.1727 45.6667 19.0822C43.7951 16.3535 40.8942 15.9807 39.8747 15.9509C37.4383 15.6945 35.075 17.4088 33.8339 17.4088C32.568 17.4088 30.6567 15.9757 28.5969 16.0178C25.9462 16.0587 23.4664 17.5934 22.1063 19.9766C19.2996 24.8358 21.3929 31.9766 24.082 35.9043C25.4272 37.828 26.999 39.9758 29.0564 39.9002C31.0692 39.8172 31.8211 38.617 34.25 38.617C36.6567 38.617 37.3628 39.9002 39.461 39.8519C41.6212 39.8172 42.9813 37.9196 44.2794 35.9787C45.8339 33.7739 46.4582 31.6025 46.4829 31.491C46.4322 31.4737 42.2876 29.8919 42.2468 25.107Z" fill="white"/>
<path d="M38.2831 13.3671C39.3656 12.0132 40.1063 10.1714 39.9007 8.30225C38.3338 8.37161 36.3743 9.38606 35.2459 10.7102C34.2475 11.877 33.3557 13.7895 33.5861 15.588C35.3462 15.7193 37.1534 14.6999 38.2831 13.3671Z" fill="white"/>
<path d="M71.3757 39.6241H68.5627L67.0218 34.7822H61.6659L60.1981 39.6241H57.4595L62.7658 23.1401H66.0433L71.3757 39.6241ZM66.5573 32.7508L65.1639 28.4465C65.0165 28.0068 64.7402 26.9713 64.3327 25.3412H64.2832C64.1209 26.0423 63.8596 27.0778 63.5004 28.4465L62.1317 32.7508H66.5573Z" fill="white"/>
<path d="M85.0215 33.5345C85.0215 35.556 84.4753 37.1539 83.3828 38.3269C82.4043 39.371 81.1892 39.8925 79.7387 39.8925C78.1731 39.8925 77.0484 39.3302 76.3634 38.2055H76.3138V44.4669H73.673V31.6506C73.673 30.3797 73.6396 29.0754 73.5752 27.7377H75.8977L76.0451 29.6217H76.0946C76.9753 28.2022 78.3118 27.4937 80.1053 27.4937C81.5075 27.4937 82.678 28.0473 83.6144 29.1559C84.5533 30.2657 85.0215 31.7249 85.0215 33.5345ZM82.3312 33.6312C82.3312 32.4743 82.0711 31.5205 81.5484 30.7699C80.9774 29.9871 80.2106 29.5956 79.2494 29.5956C78.5979 29.5956 78.0058 29.8136 77.4769 30.2435C76.9468 30.677 76.6 31.243 76.4377 31.9441C76.356 32.2711 76.3151 32.5387 76.3151 32.7492V34.7311C76.3151 35.5957 76.5802 36.3252 77.1103 36.921C77.6404 37.5168 78.3291 37.8141 79.1764 37.8141C80.171 37.8141 80.9452 37.4301 81.4988 36.6646C82.0537 35.8979 82.3312 34.8871 82.3312 33.6312Z" fill="white"/>
<path d="M98.6928 33.5345C98.6928 35.556 98.1465 37.1539 97.0528 38.3269C96.0755 39.371 94.8604 39.8925 93.41 39.8925C91.8443 39.8925 90.7196 39.3302 90.0359 38.2055H89.9863V44.4669H87.3455V31.6506C87.3455 30.3797 87.3121 29.0754 87.2477 27.7377H89.5701L89.7175 29.6217H89.7671C90.6465 28.2022 91.983 27.4937 93.7778 27.4937C95.1787 27.4937 96.3493 28.0473 97.2882 29.1559C98.2233 30.2657 98.6928 31.7249 98.6928 33.5345ZM96.0024 33.6312C96.0024 32.4743 95.7411 31.5205 95.2184 30.7699C94.6474 29.9871 93.8831 29.5956 92.9207 29.5956C92.2679 29.5956 91.6771 29.8136 91.1469 30.2435C90.6168 30.677 90.2712 31.243 90.109 31.9441C90.0284 32.2711 89.9863 32.5387 89.9863 32.7492V34.7311C89.9863 35.5957 90.2514 36.3252 90.7791 36.921C91.3092 37.5156 91.9979 37.8141 92.8476 37.8141C93.8422 37.8141 94.6164 37.4301 95.1701 36.6646C95.725 35.8979 96.0024 34.8871 96.0024 33.6312Z" fill="white"/>
<path d="M113.978 35.0013C113.978 36.4034 113.491 37.5442 112.514 38.4249C111.44 39.3873 109.945 39.8679 108.024 39.8679C106.25 39.8679 104.828 39.526 103.752 38.8411L104.363 36.64C105.523 37.3411 106.795 37.6929 108.181 37.6929C109.176 37.6929 109.95 37.4674 110.506 37.019C111.06 36.5706 111.336 35.9687 111.336 35.218C111.336 34.5492 111.108 33.9856 110.651 33.5285C110.196 33.0715 109.437 32.6466 108.377 32.2539C105.491 31.1776 104.049 29.6008 104.049 27.5273C104.049 26.1722 104.554 25.0611 105.566 24.1965C106.574 23.3307 107.92 22.8984 109.602 22.8984C111.102 22.8984 112.348 23.1598 113.342 23.6813L112.682 25.834C111.753 25.3287 110.703 25.076 109.527 25.076C108.598 25.076 107.873 25.3051 107.352 25.761C106.913 26.1685 106.692 26.6652 106.692 27.2535C106.692 27.9051 106.944 28.4439 107.449 28.8675C107.889 29.2589 108.688 29.6825 109.847 30.1396C111.265 30.7106 112.307 31.3782 112.977 32.1437C113.645 32.9067 113.978 33.8617 113.978 35.0013Z" fill="white"/>
<path d="M122.709 29.7198H119.798V35.4907C119.798 36.9585 120.311 37.6918 121.339 37.6918C121.811 37.6918 122.202 37.6509 122.512 37.5691L122.585 39.5745C122.065 39.769 121.38 39.8668 120.531 39.8668C119.488 39.8668 118.673 39.5485 118.085 38.9131C117.499 38.2764 117.204 37.2087 117.204 35.7087V29.7173H115.47V27.7355H117.204V25.5592L119.798 24.7764V27.7355H122.709V29.7198Z" fill="white"/>
<path d="M135.842 33.5831C135.842 35.4101 135.32 36.9101 134.277 38.0831C133.183 39.2908 131.731 39.8927 129.922 39.8927C128.178 39.8927 126.789 39.3143 125.754 38.1574C124.718 37.0005 124.2 35.5401 124.2 33.78C124.2 31.9381 124.733 30.4295 125.802 29.2565C126.868 28.0822 128.308 27.4951 130.117 27.4951C131.861 27.4951 133.265 28.0736 134.324 29.2317C135.337 30.3552 135.842 31.8056 135.842 33.5831ZM133.102 33.6685C133.102 32.5723 132.868 31.6322 132.394 30.8481C131.84 29.8993 131.049 29.4262 130.023 29.4262C128.962 29.4262 128.155 29.9006 127.602 30.8481C127.127 31.6334 126.893 32.5884 126.893 33.7181C126.893 34.8143 127.127 35.7544 127.602 36.5372C128.173 37.4861 128.97 37.9592 130 37.9592C131.008 37.9592 131.799 37.4761 132.37 36.5125C132.857 35.7136 133.102 34.7635 133.102 33.6685Z" fill="white"/>
<path d="M144.426 30.0601C144.165 30.0118 143.886 29.9871 143.594 29.9871C142.665 29.9871 141.946 30.3376 141.441 31.0399C141.001 31.6592 140.781 32.4421 140.781 33.3871V39.6237H138.141L138.166 31.4809C138.166 30.1109 138.132 28.8636 138.067 27.7389H140.367L140.464 30.0131H140.537C140.815 29.2315 141.255 28.6022 141.857 28.1303C142.445 27.7055 143.081 27.4937 143.766 27.4937C144.01 27.4937 144.23 27.511 144.426 27.542V30.0601Z" fill="white"/>
<path d="M156.237 33.1187C156.237 33.5918 156.206 33.9907 156.14 34.3164H148.218C148.248 35.4907 148.631 36.3887 149.367 37.008C150.035 37.5617 150.898 37.8392 151.958 37.8392C153.131 37.8392 154.201 37.6521 155.164 37.2768L155.578 39.11C154.453 39.6005 153.125 39.8445 151.593 39.8445C149.75 39.8445 148.303 39.302 147.25 38.2182C146.2 37.1344 145.673 35.679 145.673 33.8532C145.673 32.0609 146.163 30.5683 147.142 29.378C148.168 28.1071 149.554 27.4717 151.298 27.4717C153.011 27.4717 154.308 28.1071 155.189 29.378C155.886 30.3875 156.237 31.636 156.237 33.1187ZM153.718 32.4337C153.736 31.6509 153.564 30.9746 153.206 30.4036C152.748 29.669 152.046 29.3024 151.101 29.3024C150.238 29.3024 149.535 29.6604 148.999 30.3788C148.559 30.9498 148.298 31.6348 148.218 32.4325H153.718V32.4337Z" fill="white"/>
<path d="M65.6846 12.9994C65.6846 14.4573 65.2473 15.5547 64.3741 16.2917C63.5652 16.9717 62.4158 17.3124 60.9269 17.3124C60.1887 17.3124 59.557 17.2802 59.0281 17.2157V9.25C59.718 9.13852 60.4612 9.08154 61.2638 9.08154C62.6821 9.08154 63.751 9.38997 64.4719 10.0068C65.2795 10.7042 65.6846 11.7013 65.6846 12.9994ZM64.3159 13.0353C64.3159 12.0902 64.0657 11.3656 63.5652 10.8602C63.0648 10.3561 62.334 10.1034 61.3716 10.1034C60.9628 10.1034 60.6148 10.1307 60.3262 10.1877V16.2434C60.486 16.2682 60.7783 16.2793 61.2031 16.2793C62.1965 16.2793 62.9633 16.0031 63.5033 15.4507C64.0434 14.8982 64.3159 14.0931 64.3159 13.0353Z" fill="white"/>
<path d="M72.9419 14.2723C72.9419 15.1703 72.6855 15.9061 72.1727 16.4833C71.6351 17.0766 70.9229 17.3727 70.0335 17.3727C69.1764 17.3727 68.4939 17.089 67.9848 16.5192C67.4769 15.9507 67.223 15.2335 67.223 14.3689C67.223 13.4647 67.4844 12.7228 68.0096 12.1468C68.5347 11.5708 69.2408 11.2822 70.1301 11.2822C70.9873 11.2822 71.676 11.5659 72.1974 12.1344C72.6929 12.6869 72.9419 13.4003 72.9419 14.2723ZM71.5954 14.3144C71.5954 13.7756 71.479 13.3136 71.2474 12.9284C70.9749 12.4627 70.5872 12.2298 70.0831 12.2298C69.5616 12.2298 69.1652 12.4627 68.8927 12.9284C68.6599 13.3136 68.5447 13.7831 68.5447 14.338C68.5447 14.8768 68.6611 15.3388 68.8927 15.724C69.1739 16.1897 69.5653 16.4226 70.0707 16.4226C70.5661 16.4226 70.9551 16.186 71.235 15.7116C71.4753 15.319 71.5954 14.8532 71.5954 14.3144Z" fill="white"/>
<path d="M82.6727 11.4014L80.8457 17.2404H79.6566L78.8998 14.7048C78.7078 14.0719 78.5517 13.4427 78.4304 12.8184H78.4068C78.2941 13.46 78.138 14.088 77.9374 14.7048L77.1335 17.2404H75.9308L74.2128 11.4014H75.5468L76.207 14.1772C76.3668 14.8337 76.4981 15.4592 76.6034 16.0513H76.6269C76.7235 15.5632 76.8833 14.9414 77.1087 14.1896L77.9374 11.4026H78.9952L79.7892 14.1301C79.9811 14.7953 80.1372 15.4356 80.2574 16.0525H80.2933C80.3812 15.4517 80.5138 14.8114 80.6897 14.1301L81.3982 11.4026H82.6727V11.4014Z" fill="white"/>
<path d="M89.4021 17.2404H88.104V13.8961C88.104 12.8655 87.7126 12.3502 86.9273 12.3502C86.5421 12.3502 86.2312 12.4914 85.9897 12.7751C85.7506 13.0587 85.6292 13.3932 85.6292 13.7759V17.2392H84.3311V13.0699C84.3311 12.5571 84.315 12.0009 84.2841 11.399H85.4248L85.4855 12.3118H85.5215C85.6726 12.0282 85.898 11.7941 86.1941 11.6071C86.5458 11.389 86.9397 11.2788 87.3708 11.2788C87.9158 11.2788 88.3691 11.4547 88.7296 11.8077C89.178 12.24 89.4021 12.8853 89.4021 13.7425V17.2404Z" fill="white"/>
<path d="M92.9817 17.2404H91.6848V8.72217H92.9817V17.2404Z" fill="white"/>
<path d="M100.624 14.2723C100.624 15.1703 100.368 15.9061 99.8552 16.4833C99.3176 17.0766 98.6041 17.3727 97.716 17.3727C96.8576 17.3727 96.1751 17.089 95.6673 16.5192C95.1594 15.9507 94.9055 15.2335 94.9055 14.3689C94.9055 13.4647 95.1669 12.7228 95.6921 12.1468C96.2172 11.5708 96.9233 11.2822 97.8114 11.2822C98.6698 11.2822 99.3572 11.5659 99.8799 12.1344C100.375 12.6869 100.624 13.4003 100.624 14.2723ZM99.2767 14.3144C99.2767 13.7756 99.1603 13.3136 98.9287 12.9284C98.6574 12.4627 98.2684 12.2298 97.7656 12.2298C97.2428 12.2298 96.8465 12.4627 96.5752 12.9284C96.3424 13.3136 96.2272 13.7831 96.2272 14.338C96.2272 14.8768 96.3436 15.3388 96.5752 15.724C96.8564 16.1897 97.2478 16.4226 97.7532 16.4226C98.2486 16.4226 98.6363 16.186 98.9163 15.7116C99.1578 15.319 99.2767 14.8532 99.2767 14.3144Z" fill="white"/>
<path d="M106.907 17.2401H105.741L105.644 16.5675H105.609C105.21 17.1039 104.641 17.3727 103.903 17.3727C103.352 17.3727 102.906 17.1955 102.57 16.8438C102.265 16.5242 102.113 16.1266 102.113 15.6547C102.113 14.9412 102.41 14.3974 103.009 14.0209C103.606 13.6443 104.445 13.4598 105.527 13.4684V13.3594C105.527 12.5902 105.123 12.2063 104.314 12.2063C103.738 12.2063 103.23 12.3512 102.792 12.6385L102.528 11.7864C103.071 11.4507 103.741 11.2822 104.531 11.2822C106.057 11.2822 106.822 12.0873 106.822 13.6976V15.8479C106.822 16.4313 106.851 16.8958 106.907 17.2401ZM105.559 15.2335V14.333C104.127 14.3082 103.411 14.7009 103.411 15.5097C103.411 15.8144 103.493 16.0424 103.66 16.1947C103.827 16.3471 104.04 16.4226 104.294 16.4226C104.579 16.4226 104.845 16.3322 105.088 16.1526C105.332 15.9717 105.482 15.7426 105.538 15.4614C105.552 15.3983 105.559 15.3215 105.559 15.2335Z" fill="white"/>
<path d="M114.283 17.2404H113.131L113.07 16.3027H113.034C112.666 17.0162 112.039 17.3729 111.159 17.3729C110.455 17.3729 109.869 17.0967 109.405 16.5442C108.94 15.9918 108.709 15.2746 108.709 14.3939C108.709 13.4488 108.96 12.6834 109.465 12.0987C109.955 11.5537 110.554 11.2812 111.268 11.2812C112.052 11.2812 112.6 11.545 112.913 12.074H112.937V8.72217H114.237V15.6673C114.237 16.2358 114.252 16.7598 114.283 17.2404ZM112.937 14.7779V13.8043C112.937 13.6359 112.925 13.4996 112.901 13.3956C112.828 13.0834 112.671 12.8209 112.432 12.609C112.19 12.3972 111.899 12.2907 111.564 12.2907C111.079 12.2907 110.7 12.4827 110.422 12.8679C110.145 13.2531 110.005 13.7449 110.005 14.3456C110.005 14.9228 110.138 15.391 110.404 15.7515C110.685 16.1355 111.065 16.3275 111.539 16.3275C111.965 16.3275 112.306 16.1677 112.565 15.8469C112.815 15.5508 112.937 15.1941 112.937 14.7779Z" fill="white"/>
<path d="M125.385 14.2723C125.385 15.1703 125.128 15.9061 124.616 16.4833C124.078 17.0766 123.367 17.3727 122.477 17.3727C121.621 17.3727 120.938 17.089 120.428 16.5192C119.92 15.9507 119.666 15.2335 119.666 14.3689C119.666 13.4647 119.927 12.7228 120.453 12.1468C120.978 11.5708 121.684 11.2822 122.574 11.2822C123.43 11.2822 124.12 11.5659 124.64 12.1344C125.136 12.6869 125.385 13.4003 125.385 14.2723ZM124.04 14.3144C124.04 13.7756 123.923 13.3136 123.692 12.9284C123.418 12.4627 123.031 12.2298 122.526 12.2298C122.006 12.2298 121.609 12.4627 121.336 12.9284C121.103 13.3136 120.988 13.7831 120.988 14.338C120.988 14.8768 121.104 15.3388 121.336 15.724C121.617 16.1897 122.008 16.4226 122.514 16.4226C123.009 16.4226 123.399 16.186 123.679 15.7116C123.918 15.319 124.04 14.8532 124.04 14.3144Z" fill="white"/>
<path d="M132.364 17.2404H131.068V13.8961C131.068 12.8655 130.676 12.3502 129.89 12.3502C129.504 12.3502 129.193 12.4914 128.953 12.7751C128.713 13.0587 128.593 13.3932 128.593 13.7759V17.2392H127.293V13.0699C127.293 12.5571 127.279 12.0009 127.248 11.399H128.387L128.448 12.3118H128.484C128.636 12.0282 128.862 11.7941 129.156 11.6071C129.509 11.389 129.902 11.2788 130.334 11.2788C130.878 11.2788 131.331 11.4547 131.692 11.8077C132.141 12.24 132.364 12.8853 132.364 13.7425V17.2404Z" fill="white"/>
<path d="M141.101 12.3738H139.671V15.2103C139.671 15.9312 139.925 16.2916 140.428 16.2916C140.661 16.2916 140.854 16.2718 141.006 16.2309L141.04 17.2157C140.783 17.3123 140.447 17.3606 140.032 17.3606C139.519 17.3606 139.12 17.2045 138.831 16.8924C138.542 16.5802 138.398 16.055 138.398 15.318V12.3738H137.544V11.4014H138.398V10.3312L139.67 9.94727V11.4002H141.099V12.3738H141.101Z" fill="white"/>
<path d="M147.973 17.2404H146.674V13.9208C146.674 12.8741 146.282 12.3502 145.498 12.3502C144.896 12.3502 144.485 12.6536 144.259 13.2606C144.221 13.3882 144.199 13.5442 144.199 13.7275V17.2391H142.902V8.72217H144.199V12.2412H144.223C144.632 11.6008 145.218 11.2812 145.977 11.2812C146.515 11.2812 146.96 11.4571 147.313 11.8101C147.752 12.2498 147.973 12.9038 147.973 13.7684V17.2404Z" fill="white"/>
<path d="M155.062 14.0448C155.062 14.2777 155.044 14.4734 155.013 14.6332H151.12C151.138 15.2104 151.324 15.6501 151.684 15.9548C152.013 16.2273 152.438 16.3636 152.959 16.3636C153.535 16.3636 154.06 16.2719 154.533 16.0873L154.736 16.9891C154.182 17.2294 153.531 17.3495 152.776 17.3495C151.872 17.3495 151.16 17.0832 150.645 16.5506C150.127 16.018 149.871 15.3033 149.871 14.4065C149.871 13.5258 150.11 12.7925 150.591 12.2079C151.094 11.5836 151.774 11.2715 152.633 11.2715C153.473 11.2715 154.111 11.5836 154.542 12.2079C154.89 12.7034 155.062 13.3165 155.062 14.0448ZM153.823 13.7091C153.833 13.3239 153.748 12.992 153.572 12.712C153.346 12.3516 153.003 12.1707 152.539 12.1707C152.115 12.1707 151.769 12.3466 151.506 12.6996C151.29 12.9808 151.163 13.3165 151.12 13.7091H153.823Z" fill="white"/>
</g>
<defs>
<clipPath id="clip0_87_1164">
<rect width="175.5" height="52" fill="white" transform="translate(0.5)"/>
</clipPath>
</defs>
</svg>
