<svg width="1028" height="166" viewBox="0 0 1028 166" fill="none" xmlns="http://www.w3.org/2000/svg">
<circle cx="514" cy="156" r="10" fill="#25AA99"/>
<path d="M1027.25 78C1027.25 83.0264 1023.89 88.089 1017.11 93.1173C1010.35 98.1315 1000.33 103 987.354 107.655C961.412 116.963 923.83 125.358 877.34 132.413C784.372 146.521 655.912 155.25 514 155.25C372.088 155.25 243.628 146.521 150.66 132.413C104.17 125.358 66.5884 116.963 40.6459 107.655C27.6702 103 17.6508 98.1315 10.8894 93.1173C4.10893 88.089 0.75 83.0264 0.75 78C0.75 72.9736 4.10893 67.911 10.8894 62.8827C17.6508 57.8685 27.6702 53.0002 40.6459 48.3448C66.5884 39.0372 104.17 30.6421 150.66 23.5872C243.628 9.47917 372.088 0.75 514 0.75C655.912 0.75 784.372 9.47917 877.34 23.5872C923.83 30.6421 961.412 39.0372 987.354 48.3448C1000.33 53.0002 1010.35 57.8685 1017.11 62.8827C1023.89 67.911 1027.25 72.9736 1027.25 78Z" stroke="url(#paint0_linear_87_1137)" stroke-width="1.5"/>
<defs>
<linearGradient id="paint0_linear_87_1137" x1="514" y1="0" x2="514" y2="156" gradientUnits="userSpaceOnUse">
<stop stop-color="#25AA99" stop-opacity="0.2"/>
<stop offset="1" stop-color="#25AA99"/>
</linearGradient>
</defs>
</svg>
