<svg width="176" height="52" viewBox="0 0 176 52" fill="none" xmlns="http://www.w3.org/2000/svg">
<g clip-path="url(#clip0_87_1165)">
<path d="M169 0H6.5C2.91015 0 0 2.91015 0 6.5V45.5C0 49.0898 2.91015 52 6.5 52H169C172.59 52 175.5 49.0898 175.5 45.5V6.5C175.5 2.91015 172.59 0 169 0Z" fill="#313333"/>
<path d="M169 1.04C170.448 1.04 171.837 1.61525 172.861 2.6392C173.885 3.66315 174.46 5.05192 174.46 6.5V45.5C174.46 46.9481 173.885 48.3369 172.861 49.3608C171.837 50.3848 170.448 50.96 169 50.96H6.5C5.05192 50.96 3.66315 50.3848 2.6392 49.3608C1.61525 48.3369 1.04 46.9481 1.04 45.5V6.5C1.04 5.05192 1.61525 3.66315 2.6392 2.6392C3.66315 1.61525 5.05192 1.04 6.5 1.04H169ZM169 0H6.5C4.77609 0 3.12279 0.684819 1.90381 1.90381C0.684819 3.12279 0 4.77609 0 6.5V45.5C0 47.2239 0.684819 48.8772 1.90381 50.0962C3.12279 51.3152 4.77609 52 6.5 52H169C170.724 52 172.377 51.3152 173.596 50.0962C174.815 48.8772 175.5 47.2239 175.5 45.5V6.5C175.5 4.77609 174.815 3.12279 173.596 1.90381C172.377 0.684819 170.724 0 169 0Z" fill="#313333"/>
<path d="M88.5822 28.2748C87.4906 28.2799 86.4249 28.6083 85.5198 29.2185C84.6146 29.8287 83.9105 30.6934 83.4963 31.7034C83.0821 32.7134 82.9764 33.8235 83.1925 34.8935C83.4086 35.9635 83.9369 36.9455 84.7106 37.7156C85.4843 38.4857 86.4688 39.0093 87.5398 39.2204C88.6109 39.4315 89.7204 39.3206 90.7285 38.9017C91.7365 38.4827 92.5979 37.7746 93.2038 36.8666C93.8098 35.9586 94.1332 34.8914 94.1332 33.7998C94.1438 33.0691 94.0072 32.3437 93.7317 31.6669C93.4562 30.9901 93.0472 30.3756 92.5293 29.8601C92.0114 29.3446 91.395 28.9386 90.7169 28.6662C90.0388 28.3939 89.3128 28.2607 88.5822 28.2748ZM88.5822 37.1538C87.9108 37.2007 87.2409 37.0446 86.6594 36.7058C86.078 36.3669 85.6119 35.861 85.3218 35.2537C85.0317 34.6465 84.931 33.966 85.0328 33.3008C85.1345 32.6355 85.4341 32.0163 85.8924 31.5235C86.3508 31.0308 86.9468 30.6873 87.603 30.5378C88.2591 30.3882 88.9451 30.4396 89.5717 30.6851C90.1983 30.9306 90.7366 31.3589 91.1165 31.9144C91.4965 32.4699 91.7005 33.1268 91.7022 33.7998C91.7231 34.2262 91.6585 34.6525 91.512 35.0535C91.3656 35.4545 91.1403 35.8222 90.8496 36.1348C90.5588 36.4474 90.2083 36.6986 89.8189 36.8736C89.4295 37.0486 89.009 37.1439 88.5822 37.1538ZM76.4792 28.2748C75.387 28.2773 74.3201 28.6036 73.4132 29.2122C72.5063 29.8209 71.8002 30.6846 71.384 31.6944C70.9678 32.7042 70.8603 33.8147 71.0749 34.8856C71.2896 35.9565 71.8168 36.9397 72.59 37.7111C73.3632 38.4825 74.3477 39.0074 75.4191 39.2195C76.4905 39.4317 77.6007 39.3215 78.6095 38.9029C79.6183 38.4844 80.4804 37.7762 81.0869 36.8679C81.6935 35.9596 82.0172 34.892 82.0172 33.7998C82.0278 33.0691 81.8912 32.3437 81.6157 31.6669C81.3402 30.9901 80.9312 30.3756 80.4133 29.8601C79.8954 29.3446 79.279 28.9386 78.6009 28.6662C77.9228 28.3939 77.1968 28.2607 76.4662 28.2748H76.4792ZM76.4792 37.1538C75.8075 37.2034 75.1365 37.0496 74.5534 36.7125C73.9703 36.3754 73.5023 35.8705 73.2101 35.2637C72.918 34.6568 72.8153 33.9761 72.9155 33.3101C73.0156 32.6441 73.314 32.0236 73.7717 31.5296C74.2294 31.0355 74.8252 30.6906 75.4816 30.5399C76.1381 30.3892 76.8247 30.4396 77.452 30.6846C78.0794 30.9295 78.6185 31.3577 78.9992 31.9133C79.3798 32.4689 79.5844 33.1263 79.5862 33.7998C79.6071 34.2262 79.5425 34.6525 79.396 35.0535C79.2496 35.4545 79.0243 35.8222 78.7336 36.1348C78.4428 36.4474 78.0923 36.6986 77.7029 36.8736C77.3135 37.0486 76.893 37.1439 76.4662 37.1538H76.4792ZM62.0622 29.9778V32.3178H67.6782C67.5901 33.4199 67.132 34.4599 66.3782 35.2688C65.8163 35.8411 65.1409 36.2894 64.3953 36.585C63.6497 36.8805 62.8506 37.0167 62.0492 36.9848C60.3942 36.9848 58.8071 36.3273 57.6368 35.1571C56.4666 33.9869 55.8092 32.3997 55.8092 30.7448C55.8092 29.0898 56.4666 27.5026 57.6368 26.3324C58.8071 25.1622 60.3942 24.5048 62.0492 24.5048C63.6323 24.4789 65.1611 25.082 66.3002 26.1818L67.9512 24.5308C67.1822 23.7521 66.2647 23.1357 65.2532 22.7181C64.2416 22.3006 63.1565 22.0903 62.0622 22.0998C60.9065 22.0548 59.7536 22.2436 58.6726 22.6548C57.5916 23.0661 56.6047 23.6913 55.7712 24.4931C54.9376 25.2948 54.2744 26.2566 53.8215 27.3208C53.3685 28.385 53.135 29.5297 53.135 30.6863C53.135 31.8428 53.3685 32.9875 53.8215 34.0517C54.2744 35.1159 54.9376 36.0777 55.7712 36.8795C56.6047 37.6812 57.5916 38.3065 58.6726 38.7177C59.7536 39.129 60.9065 39.3177 62.0622 39.2728C63.1749 39.323 64.2855 39.1344 65.3193 38.7196C66.353 38.3047 67.2859 37.6733 68.0552 36.8678C69.4172 35.3714 70.1443 33.4043 70.0832 31.3818C70.0874 30.889 70.0438 30.3971 69.9532 29.9128L62.0622 29.9778ZM120.965 31.7978C120.626 30.8003 119.992 29.9294 119.147 29.3003C118.302 28.6712 117.286 28.3135 116.233 28.2748C115.522 28.2734 114.818 28.4178 114.165 28.6993C113.512 28.9807 112.924 29.393 112.436 29.9109C111.949 30.4287 111.573 31.041 111.332 31.7099C111.09 32.3788 110.989 33.09 111.033 33.7998C111.017 34.5264 111.148 35.2487 111.418 35.9236C111.687 36.5985 112.09 37.2121 112.602 37.7278C113.114 38.2435 113.725 38.6507 114.398 38.9251C115.071 39.1995 115.792 39.3354 116.519 39.3248C117.429 39.3297 118.325 39.109 119.128 38.6825C119.931 38.2559 120.616 37.6369 121.121 36.8808L119.236 35.5808C118.955 36.0498 118.557 36.4377 118.08 36.7066C117.604 36.9755 117.066 37.1161 116.519 37.1148C115.956 37.1362 115.4 36.9878 114.922 36.6887C114.444 36.3896 114.068 35.9537 113.841 35.4378L121.238 32.3828L120.965 31.7978ZM113.425 33.6438C113.399 33.2417 113.453 32.8384 113.584 32.4574C113.716 32.0765 113.922 31.7257 114.191 31.4254C114.46 31.1252 114.786 30.8816 115.15 30.7089C115.514 30.5362 115.909 30.4379 116.311 30.4198C116.731 30.3921 117.149 30.4883 117.514 30.6963C117.879 30.9043 118.175 31.215 118.365 31.5898L113.425 33.6438ZM107.419 38.9998H109.85V22.7498H107.419V38.9998ZM103.441 29.5098H103.35C102.984 29.1001 102.535 28.7726 102.033 28.5485C101.531 28.3245 100.988 28.209 100.438 28.2098C99.0175 28.2787 97.6778 28.8915 96.6967 29.9213C95.7157 30.9511 95.1684 32.3189 95.1684 33.7413C95.1684 35.1636 95.7157 36.5314 96.6967 37.5612C97.6778 38.591 99.0175 39.2039 100.438 39.2728C100.989 39.282 101.535 39.1704 102.038 38.9458C102.542 38.7212 102.989 38.3891 103.35 37.9728H103.428V38.7658C103.428 40.8848 102.297 42.0158 100.477 42.0158C99.871 42.0016 99.2828 41.8073 98.7874 41.4578C98.2919 41.1082 97.9117 40.6191 97.6952 40.0528L95.5762 40.9368C95.9751 41.907 96.6547 42.736 97.5279 43.3174C98.4011 43.8988 99.4281 44.206 100.477 44.1998C103.324 44.1998 105.677 42.5228 105.677 38.4408V28.5998H103.441V29.5098ZM100.659 37.1538C99.8206 37.0799 99.0402 36.6945 98.4716 36.0737C97.9031 35.4529 97.5878 34.6416 97.5878 33.7998C97.5878 32.958 97.9031 32.1467 98.4716 31.5258C99.0402 30.905 99.8206 30.5197 100.659 30.4458C101.075 30.4671 101.482 30.5714 101.857 30.7526C102.232 30.9338 102.567 31.1881 102.842 31.5007C103.117 31.8133 103.326 32.1777 103.458 32.5725C103.59 32.9674 103.642 33.3847 103.61 33.7998C103.646 34.2167 103.596 34.6364 103.465 35.0337C103.333 35.4309 103.123 35.7974 102.846 36.1109C102.569 36.4244 102.231 36.6785 101.853 36.8577C101.475 37.037 101.064 37.1377 100.646 37.1538H100.659ZM132.353 22.7498H126.542V38.9998H128.973V32.8378H132.366C133.059 32.8875 133.755 32.794 134.41 32.5631C135.065 32.3322 135.665 31.9688 136.174 31.4955C136.682 31.0223 137.088 30.4493 137.365 29.8124C137.642 29.1756 137.786 28.4884 137.786 27.7938C137.786 27.0991 137.642 26.412 137.365 25.7751C137.088 25.1382 136.682 24.5653 136.174 24.092C135.665 23.6188 135.065 23.2554 134.41 23.0244C133.755 22.7935 133.059 22.7 132.366 22.7498H132.353ZM132.353 30.5498H128.96V25.0118H132.405C133.145 25.0118 133.854 25.3056 134.377 25.8285C134.9 26.3514 135.194 27.0607 135.194 27.8003C135.194 28.5398 134.9 29.2491 134.377 29.772C133.854 30.295 133.145 30.5888 132.405 30.5888L132.353 30.5498ZM147.342 28.2098C146.457 28.1569 145.576 28.3637 144.807 28.8048C144.038 29.2459 143.414 29.9021 143.013 30.6928L145.171 31.5898C145.384 31.1976 145.706 30.8758 146.099 30.6634C146.491 30.4511 146.937 30.3574 147.381 30.3938C147.69 30.3577 148.002 30.3835 148.301 30.4696C148.6 30.5557 148.878 30.7004 149.12 30.8952C149.362 31.09 149.563 31.3311 149.711 31.6044C149.859 31.8776 149.95 32.1776 149.981 32.4868V32.6558C149.2 32.2424 148.33 32.028 147.446 32.0318C145.119 32.0318 142.766 33.3318 142.766 35.6848C142.789 36.1865 142.912 36.6785 143.129 37.1317C143.345 37.585 143.65 37.9902 144.026 38.3235C144.402 38.6568 144.84 38.9114 145.316 39.0722C145.792 39.233 146.295 39.2968 146.796 39.2598C147.408 39.3037 148.021 39.1821 148.57 38.9076C149.119 38.6331 149.584 38.2159 149.916 37.6998H149.994V38.9998H152.334V32.7468C152.334 29.8998 150.176 28.2488 147.407 28.2488L147.342 28.2098ZM147.043 37.1148C146.25 37.1148 145.145 36.7118 145.145 35.7368C145.145 34.4368 146.523 34.0078 147.745 34.0078C148.517 33.9887 149.281 34.1773 149.955 34.5538C149.874 35.2576 149.541 35.9083 149.018 36.3861C148.495 36.8639 147.816 37.1365 147.108 37.1538L147.043 37.1148ZM160.862 28.5998L158.08 35.6458H158.002L155.116 28.5998H152.516L156.845 38.4538L154.375 43.9268H156.91L163.566 28.5998H160.862ZM139.009 38.9998H141.44V22.7498H139.009V38.9998Z" fill="white"/>
<path d="M61.5649 13.3931C61.587 13.8699 61.512 14.3463 61.3444 14.7932C61.1768 15.2401 60.9201 15.6484 60.5899 15.9931C60.2213 16.3761 59.776 16.677 59.2832 16.8764C58.7905 17.0757 58.2612 17.169 57.7299 17.1501C56.9239 17.1438 56.1377 16.8997 55.4698 16.4485C54.8018 15.9973 54.2819 15.3591 53.9751 14.6137C53.6684 13.8683 53.5884 13.0489 53.7453 12.2583C53.9021 11.4677 54.2888 10.7409 54.8569 10.1691C55.2303 9.7879 55.6779 9.48739 56.1721 9.28615C56.6663 9.0849 57.1965 8.9872 57.7299 8.99909C58.2795 8.99726 58.8237 9.10786 59.3289 9.32409C59.7994 9.51383 60.2181 9.81231 60.5509 10.1951L59.8619 10.8841C59.6025 10.5755 59.2748 10.3314 58.9048 10.1712C58.5347 10.011 58.1325 9.93909 57.7299 9.96109C57.3239 9.95909 56.9216 10.0391 56.5472 10.1964C56.1728 10.3536 55.834 10.5849 55.5512 10.8762C55.2683 11.1676 55.0472 11.513 54.9011 11.8919C54.755 12.2708 54.6869 12.6753 54.7009 13.0811C54.6924 13.6871 54.8636 14.282 55.1928 14.7908C55.522 15.2996 55.9945 15.6995 56.5508 15.9401C57.107 16.1807 57.722 16.2511 58.3183 16.1426C58.9145 16.034 59.4652 15.7513 59.9009 15.3301C60.301 14.8966 60.5317 14.3336 60.5509 13.7441H57.7299V12.8081H61.5129C61.5476 13.0012 61.565 13.1969 61.5649 13.3931ZM67.5189 10.1431H64.0089V12.6131H67.2069V13.5491H64.0089V16.0191H67.5189V16.9811H62.9689V9.18109H67.5189V10.1431ZM71.7829 16.9811H70.7819V10.1431H68.5979V9.18109H74.0189V10.1431H71.7829V16.9811ZM77.8409 16.9811V9.18109H78.8419V16.9811H77.8409ZM83.2879 16.9811H82.2869V10.1431H80.1029V9.18109H85.4589V10.1431H83.2879V16.9811ZM95.6119 15.9671C94.852 16.7228 93.8237 17.1471 92.7519 17.1471C91.6802 17.1471 90.6519 16.7228 89.8919 15.9671C89.1532 15.1852 88.7417 14.1503 88.7417 13.0746C88.7417 11.9989 89.1532 10.964 89.8919 10.1821C90.2665 9.80475 90.7121 9.50527 91.2029 9.30091C91.6938 9.09654 92.2203 8.99133 92.7519 8.99133C93.2836 8.99133 93.8101 9.09654 94.3009 9.30091C94.7918 9.50527 95.2374 9.80475 95.6119 10.1821C96.3536 10.9625 96.7671 11.998 96.7671 13.0746C96.7671 14.1512 96.3536 15.1867 95.6119 15.9671ZM90.6329 15.3171C91.1957 15.8775 91.9577 16.1922 92.7519 16.1922C93.5462 16.1922 94.3081 15.8775 94.8709 15.3171C95.4264 14.7048 95.734 13.9077 95.734 13.0811C95.734 12.2544 95.4264 11.4574 94.8709 10.8451C94.3081 10.2846 93.5462 9.96996 92.7519 9.96996C91.9577 9.96996 91.1957 10.2846 90.6329 10.8451C90.0775 11.4574 89.7699 12.2544 89.7699 13.0811C89.7699 13.9077 90.0775 14.7048 90.6329 15.3171ZM98.1729 16.9811V9.18109H99.3949L103.191 15.2521V9.18109H104.192V16.9811H103.152L99.1869 10.6241V16.9811H98.1729Z" fill="white"/>
<path fill-rule="evenodd" clip-rule="evenodd" d="M92.7519 9.12133C92.2374 9.12133 91.7279 9.22315 91.2529 9.42092C90.7784 9.61849 90.3476 9.90791 89.9853 10.2725C89.2701 11.0302 88.8717 12.0327 88.8717 13.0746C88.8717 14.1164 89.27 15.1187 89.9851 15.8763C90.7205 16.607 91.7152 17.0171 92.7519 17.0171C93.7888 17.0171 94.7835 16.6069 95.519 15.8762C96.2368 15.1201 96.6371 14.1172 96.6371 13.0746C96.6371 12.0318 96.2367 11.0288 95.5187 10.2727C95.1564 9.908 94.7256 9.61852 94.251 9.42092C93.7759 9.22315 93.2665 9.12133 92.7519 9.12133ZM91.153 9.18089C91.6597 8.96994 92.2031 8.86133 92.7519 8.86133C93.3008 8.86133 93.8442 8.96994 94.3509 9.18089C94.8576 9.39185 95.3175 9.70099 95.7042 10.0905L95.7062 10.0925C96.4708 10.8971 96.8971 11.9647 96.8971 13.0746C96.8971 14.1845 96.4708 15.252 95.7062 16.0566L95.7036 16.0593C94.9193 16.8393 93.8581 17.2771 92.7519 17.2771C91.6458 17.2771 90.5846 16.8392 89.8003 16.0593L89.7974 16.0564C89.0359 15.2504 88.6117 14.1835 88.6117 13.0746C88.6117 11.9657 89.0359 10.8989 89.7974 10.0928L89.7997 10.0905C90.1863 9.70096 90.6463 9.39185 91.153 9.18089ZM57.727 9.12905C57.2114 9.11756 56.6988 9.21201 56.2211 9.40655C55.7434 9.60108 55.3107 9.89158 54.9498 10.2601L54.9492 10.2607C54.3991 10.8144 54.0247 11.5181 53.8728 12.2836C53.7209 13.0491 53.7983 13.8425 54.0954 14.5642C54.3924 15.2859 54.8958 15.9039 55.5425 16.3408C56.1893 16.7777 56.9505 17.014 57.731 17.0201L57.7346 17.0201C58.2476 17.0384 58.7586 16.9484 59.2345 16.7559C59.7103 16.5634 60.1402 16.2728 60.4962 15.9031C60.8141 15.5711 61.0613 15.178 61.2227 14.7476C61.3841 14.3171 61.4564 13.8583 61.4351 13.3991L61.5649 13.3931L61.4349 13.393C61.435 13.2408 61.4241 13.0887 61.4023 12.9381H57.8599V13.6141H60.6853L60.6809 13.7483C60.6606 14.3691 60.4177 14.9618 59.9965 15.4182L59.9914 15.4237C59.5372 15.8628 58.963 16.1573 58.3415 16.2705C57.72 16.3836 57.079 16.3102 56.4992 16.0594C55.9193 15.8087 55.4268 15.3918 55.0836 14.8614C54.741 14.3319 54.5627 13.713 54.5709 13.0824C54.5568 12.6602 54.6278 12.2394 54.7798 11.8451C54.9322 11.4499 55.1629 11.0896 55.4579 10.7857C55.753 10.4817 56.1063 10.2405 56.4969 10.0765C56.8862 9.91298 57.3045 9.82952 57.7267 9.83107C58.1482 9.80864 58.5691 9.88423 58.9564 10.0519C59.3016 10.2014 59.6117 10.4203 59.8676 10.6945L60.3716 10.1906C60.0664 9.86626 59.6942 9.61159 59.2803 9.44465L59.2778 9.44363C58.7888 9.23437 58.2622 9.12731 57.7304 9.12909L57.727 9.12905ZM61.6949 13.3901C61.7174 13.8835 61.6396 14.3764 61.4661 14.8388C61.2923 15.3023 61.0262 15.7256 60.6838 16.083C60.3025 16.4791 59.8417 16.7907 59.332 16.9969C58.8228 17.2029 58.276 17.2994 57.7271 17.2801C56.8961 17.2732 56.0856 17.0214 55.397 16.5563C54.7078 16.0907 54.1714 15.4322 53.8549 14.6631C53.5384 13.8941 53.4559 13.0487 53.6178 12.233C53.7796 11.4174 54.1784 10.6677 54.7644 10.0778C55.1501 9.68406 55.6126 9.37364 56.1231 9.16575C56.6332 8.958 57.1805 8.85704 57.7312 8.86908C58.2975 8.86742 58.8581 8.9814 59.3788 9.20404C59.8678 9.40148 60.303 9.71186 60.649 10.1098L60.7286 10.2013L59.8536 11.0762L59.7624 10.9677C59.5159 10.6745 59.2046 10.4427 58.8531 10.2905C58.5016 10.1383 58.1195 10.07 57.737 10.0909L57.7293 10.0913C57.3407 10.0894 56.9558 10.1658 56.5975 10.3162C56.2393 10.4667 55.9151 10.688 55.6445 10.9668C55.3738 11.2456 55.1622 11.5761 55.0224 11.9387C54.8826 12.3012 54.8175 12.6883 54.8309 13.0766L54.8311 13.0829C54.8229 13.6632 54.9867 14.2329 55.3019 14.7202C55.6172 15.2074 56.0697 15.5904 56.6024 15.8208C57.135 16.0512 57.724 16.1186 58.295 16.0147C58.8647 15.9109 59.3911 15.6411 59.8079 15.2392C60.1548 14.8621 60.3667 14.382 60.4127 13.8741H57.5999V12.6781H61.6217L61.6409 12.7851C61.6768 12.9848 61.6948 13.1872 61.6949 13.3901ZM62.8389 9.05109H67.6489V10.2731H64.1389V12.4831H67.3369V13.6791H64.1389V15.8891H67.6489V17.1111H62.8389V9.05109ZM63.0989 9.31109V16.8511H67.3889V16.1491H63.8789V13.4191H67.0769V12.7431H63.8789V10.0131H67.3889V9.31109H63.0989ZM68.4679 9.05109H74.1489V10.2731H71.9129V17.1111H70.6519V10.2731H68.4679V9.05109ZM68.7279 9.31109V10.0131H70.9119V16.8511H71.6529V10.0131H73.8889V9.31109H68.7279ZM77.7109 9.05109H78.9719V17.1111H77.7109V9.05109ZM77.9709 9.31109V16.8511H78.7119V9.31109H77.9709ZM79.9729 9.05109H85.5889V10.2731H83.4179V17.1111H82.1569V10.2731H79.9729V9.05109ZM80.2329 9.31109V10.0131H82.4169V16.8511H83.1579V10.0131H85.3289V9.31109H80.2329ZM98.0429 9.05109H99.467L103.061 14.799V9.05109H104.322V17.1111H103.08L99.3169 11.0782V17.1111H98.0429V9.05109ZM98.3029 9.31109V16.8511H99.0569V10.17L103.224 16.8511H104.062V9.31109H103.321V15.7052L99.3229 9.31109H98.3029ZM90.5412 10.753C91.1284 10.1682 91.9233 9.83996 92.7519 9.83996C93.5806 9.83996 94.3755 10.1682 94.9627 10.753L94.9674 10.7576C95.5445 11.3938 95.864 12.2221 95.864 13.0811C95.864 13.94 95.5443 14.7682 94.9672 15.4044L94.9628 15.4093C94.3756 15.994 93.5806 16.3222 92.7519 16.3222C91.9233 16.3222 91.1284 15.9939 90.5412 15.4092L90.6329 15.3171L90.5367 15.4044C89.9595 14.7682 89.6399 13.94 89.6399 13.0811C89.6399 12.2221 89.9595 11.3939 90.5367 10.7577L90.5412 10.753ZM90.727 15.2273C91.2652 15.762 91.9932 16.0622 92.7519 16.0622C93.5107 16.0622 94.2386 15.762 94.7769 15.2273C95.3092 14.6393 95.604 13.8744 95.604 13.0811C95.604 12.2878 95.3092 11.5229 94.7769 10.9349C94.2386 10.4001 93.5107 10.1 92.7519 10.1C91.9932 10.1 91.2652 10.4001 90.727 10.9349C90.1947 11.5229 89.8999 12.2878 89.8999 13.0811C89.8999 13.8744 90.1947 14.6393 90.727 15.2273Z" fill="white"/>
<path d="M13.5719 9.80194C13.1482 10.3104 12.9343 10.9613 12.9739 11.6219V40.3779C12.9343 41.0386 13.1482 41.6895 13.5719 42.1979L13.6629 42.2889L29.7699 26.1949V25.8179L13.6629 9.71094L13.5719 9.80194Z" fill="url(#paint0_linear_87_1165)"/>
<path d="M35.0999 31.564L29.7699 26.195V25.818L35.0999 20.436L35.2169 20.501L41.5999 24.128C43.4199 25.155 43.4199 26.845 41.5999 27.885L35.2429 31.499L35.0999 31.564Z" fill="url(#paint1_linear_87_1165)"/>
<path d="M35.256 31.486L29.77 26L13.572 42.198C13.943 42.5241 14.4162 42.7104 14.91 42.7246C15.4037 42.7389 15.8869 42.5802 16.276 42.276L35.269 31.486" fill="url(#paint2_linear_87_1165)"/>
<path d="M35.256 20.5139L16.263 9.72392C15.8738 9.41973 15.3906 9.26105 14.8969 9.2753C14.4032 9.28954 13.9299 9.47581 13.559 9.80192L29.77 25.9999L35.256 20.5139Z" fill="url(#paint3_linear_87_1165)"/>
<path opacity="0.2" d="M35.1 31.3691L16.263 42.0941C15.8877 42.3748 15.4316 42.5264 14.963 42.5264C14.4944 42.5264 14.0383 42.3748 13.663 42.0941L13.572 42.1851L13.663 42.2761C14.0375 42.5588 14.4939 42.7117 14.963 42.7117C15.4322 42.7117 15.8885 42.5588 16.263 42.2761L35.256 31.4861L35.1 31.3691Z" fill="#313333"/>
<path opacity="0.12" d="M13.5719 42.016C13.1482 41.5076 12.9343 40.8567 12.9739 40.196V40.391C12.9343 41.0517 13.1482 41.7026 13.5719 42.211L13.6629 42.12L13.5719 42.016ZM41.5999 27.69L35.0999 31.369L35.2169 31.486L41.5999 27.872C41.9621 27.7019 42.273 27.4392 42.5012 27.1105C42.7295 26.7819 42.867 26.3988 42.8999 26C42.8268 26.3623 42.6716 26.7031 42.4462 26.996C42.2209 27.289 41.9313 27.5264 41.5999 27.69Z" fill="#313333"/>
<path opacity="0.25" d="M16.2629 9.90519L41.5999 24.3092C41.9314 24.4728 42.2209 24.7102 42.4463 25.0032C42.6716 25.2961 42.8268 25.6369 42.8999 25.9992C42.867 25.6004 42.7295 25.2173 42.5013 24.8887C42.273 24.56 41.9621 24.2973 41.5999 24.1272L16.2629 9.72319C14.4429 8.69619 12.9609 9.55419 12.9609 11.6342V11.8292C12.9999 9.73619 14.4559 8.87819 16.2629 9.90519Z" fill="white"/>
</g>
<defs>
<linearGradient id="paint0_linear_87_1165" x1="28.3399" y1="11.3229" x2="6.5259" y2="33.1369" gradientUnits="userSpaceOnUse">
<stop stop-color="#00A0FF"/>
<stop offset="0.01" stop-color="#00A1FF"/>
<stop offset="0.26" stop-color="#00BEFF"/>
<stop offset="0.51" stop-color="#00D2FF"/>
<stop offset="0.76" stop-color="#00DFFF"/>
<stop offset="1" stop-color="#00E3FF"/>
</linearGradient>
<linearGradient id="paint1_linear_87_1165" x1="43.9789" y1="26" x2="12.5319" y2="26" gradientUnits="userSpaceOnUse">
<stop stop-color="#FFE000"/>
<stop offset="0.41" stop-color="#FFBD00"/>
<stop offset="0.78" stop-color="#FFA500"/>
<stop offset="1" stop-color="#FF9C00"/>
</linearGradient>
<linearGradient id="paint2_linear_87_1165" x1="32.279" y1="28.99" x2="2.69102" y2="58.565" gradientUnits="userSpaceOnUse">
<stop stop-color="#FF3A44"/>
<stop offset="1" stop-color="#C31162"/>
</linearGradient>
<linearGradient id="paint3_linear_87_1165" x1="9.48996" y1="0.233918" x2="22.698" y2="13.4419" gradientUnits="userSpaceOnUse">
<stop stop-color="#32A071"/>
<stop offset="0.07" stop-color="#2DA771"/>
<stop offset="0.48" stop-color="#15CF74"/>
<stop offset="0.8" stop-color="#06E775"/>
<stop offset="1" stop-color="#00F076"/>
</linearGradient>
<clipPath id="clip0_87_1165">
<rect width="175.5" height="52" fill="white"/>
</clipPath>
</defs>
</svg>
