<svg width="204" height="59" viewBox="0 0 204 59" fill="none" xmlns="http://www.w3.org/2000/svg">
<g clip-path="url(#clip0_87_1099)">
<path d="M15.6749 6.0196C14.332 4.96262 11.9809 7.51887 13.5571 9.01814C15.1332 10.5174 27.0051 15.7424 27.8364 18.8384C30.4207 18.3249 18.1426 7.95366 15.6749 6.0196Z" fill="#95DBD8"/>
<path d="M12.5565 4.46019C12.8988 2.21128 26.8509 1.88519 29.785 2.84847C32.9975 3.89796 40.2312 11.0945 40.6939 15.3636C41.1303 19.5503 38.862 27.8113 36.7441 30.555C34.4871 33.4636 25.5155 39.0858 23.7362 37.774C21.4792 36.1173 28.4684 23.0736 27.8365 18.8382C27.0503 13.6882 12.2443 6.54792 12.5565 4.46019Z" fill="url(#paint0_linear_87_1099)"/>
<path d="M25.0566 55.3158C26.4032 56.3728 28.7543 53.8166 27.1744 52.3173C25.5945 50.818 13.7264 45.6081 12.9138 42.4971C10.3145 43.0106 22.5889 53.3818 25.0566 55.3158Z" fill="#95DBD8"/>
<path d="M28.1751 56.8752C27.8327 59.1241 13.8806 59.4502 10.9503 58.4869C7.73781 57.4374 0.500331 50.241 0.0414051 45.9755C-0.376142 41.7851 1.88087 33.5241 4.00246 30.7804C6.25947 27.8719 15.2349 22.2496 17.0104 23.5615C19.2674 25.2181 12.2782 38.2618 12.9139 42.4972C13.6813 47.6472 28.491 54.7912 28.1751 56.8752Z" fill="url(#paint1_linear_87_1099)"/>
<path d="M52.4153 35.6448C52.2087 35.4544 52.0457 35.222 51.9373 34.9633C51.8289 34.7046 51.7777 34.4257 51.7871 34.1455C51.7998 33.679 51.9769 33.2318 52.2874 32.8824L65.3104 18.3844H54.2397C53.8018 18.3844 53.3817 18.2111 53.072 17.9025C52.7623 17.5939 52.5884 17.1754 52.5884 16.739C52.5884 16.3026 52.7623 15.8841 53.072 15.5755C53.3817 15.2669 53.8018 15.0935 54.2397 15.0935H68.4062C68.8674 15.0808 69.3189 15.2264 69.6852 15.5058C69.949 15.7095 70.1564 15.9767 70.2881 16.2822C70.4197 16.5878 70.4711 16.9217 70.4376 17.2525C70.4012 17.6709 70.2281 18.066 69.9448 18.3769L56.9256 32.8749H68.5003C68.7235 32.8642 68.9466 32.8989 69.156 32.9767C69.3654 33.0545 69.5568 33.1738 69.7186 33.3275C69.8803 33.4812 70.0091 33.666 70.0971 33.8707C70.1851 34.0754 70.2305 34.2958 70.2305 34.5184C70.2305 34.7411 70.1851 34.9615 70.0971 35.1662C70.0091 35.3709 69.8803 35.5557 69.7186 35.7094C69.5568 35.8631 69.3654 35.9824 69.156 36.0602C68.9466 36.138 68.7235 36.1726 68.5003 36.162H53.8297C53.5712 36.1745 53.3128 36.1352 53.0699 36.0463C52.8269 35.9575 52.6043 35.8209 52.4153 35.6448Z" fill="#313333"/>
<path d="M70.9868 25.6937C70.9868 19.3556 75.3955 14.8428 80.8311 14.8428C86.7257 14.8428 90.7545 19.7904 90.6755 25.9336C90.676 26.1393 90.6356 26.3431 90.5567 26.5332C90.4778 26.7233 90.362 26.896 90.2158 27.0413C90.0697 27.1865 89.8961 27.3016 89.7051 27.3797C89.5142 27.4579 89.3095 27.4976 89.1031 27.4966H74.8087C75.3993 30.8025 77.818 33.0889 81.0531 33.1189C83.4154 33.1189 85.2173 32.3692 87.1433 31.3123C87.3657 31.2036 87.6102 31.1472 87.858 31.1473C88.2373 31.1476 88.605 31.2774 88.8999 31.515C89.1948 31.7526 89.3991 32.0838 89.4787 32.4533C89.5583 32.8228 89.5085 33.2083 89.3375 33.5456C89.1664 33.8829 88.8846 34.1517 88.5388 34.307C86.2104 35.514 83.9157 36.391 81.0531 36.3985C75.2338 36.4135 70.9868 31.8595 70.9868 25.6937ZM86.895 24.3631C86.5752 20.6862 83.912 18.1449 80.8462 18.1449C77.7804 18.1449 75.0682 20.6824 74.741 24.3631H86.895Z" fill="#313333"/>
<path d="M112.166 23.6134V34.3819C112.166 34.8541 111.978 35.3069 111.643 35.6408C111.308 35.9747 110.853 36.1623 110.379 36.1623C109.905 36.1623 109.451 35.9747 109.116 35.6408C108.781 35.3069 108.592 34.8541 108.592 34.3819V23.9545C108.592 20.2325 105.959 18.1223 102.908 18.1223C99.5944 18.1223 97.0289 20.6561 97.0289 24.1831V34.3819C97.0289 34.8541 96.8407 35.3069 96.5056 35.6408C96.1705 35.9747 95.716 36.1623 95.2421 36.1623C94.7682 36.1623 94.3138 35.9747 93.9787 35.6408C93.6436 35.3069 93.4553 34.8541 93.4553 34.3819V7.47374C93.4553 7.00156 93.6436 6.54871 93.9787 6.21482C94.3138 5.88094 94.7682 5.69336 95.2421 5.69336C95.716 5.69336 96.1705 5.88094 96.5056 6.21482C96.8407 6.54871 97.0289 7.00156 97.0289 7.47374V18.1973C98.5336 16.102 100.952 14.8239 103.883 14.8239C108.547 14.8352 112.166 18.0586 112.166 23.6134Z" fill="#313333"/>
<path d="M134.458 23.6134V34.3819C134.458 34.8541 134.269 35.3069 133.934 35.6408C133.599 35.9747 133.145 36.1623 132.671 36.1623C132.197 36.1623 131.743 35.9747 131.407 35.6408C131.072 35.3069 130.884 34.8541 130.884 34.3819V23.9545C130.884 20.2325 128.251 18.1223 125.2 18.1223C121.886 18.1223 119.321 20.6561 119.321 24.1831V34.3819C119.321 34.8541 119.132 35.3069 118.797 35.6408C118.462 35.9747 118.008 36.1623 117.534 36.1623C117.06 36.1623 116.605 35.9747 116.27 35.6408C115.935 35.3069 115.747 34.8541 115.747 34.3819V16.8667C115.747 16.3945 115.935 15.9416 116.27 15.6077C116.605 15.2739 117.06 15.0863 117.534 15.0863C118.008 15.0863 118.462 15.2739 118.797 15.6077C119.132 15.9416 119.321 16.3945 119.321 16.8667V18.1898C120.825 16.0945 123.244 14.8164 126.174 14.8164C130.839 14.8351 134.458 18.0586 134.458 23.6134Z" fill="#313333"/>
<path d="M137.61 10.1392C137.61 9.55265 137.844 8.99017 138.26 8.57545C138.676 8.16072 139.241 7.92773 139.829 7.92773C140.418 7.92773 140.983 8.16072 141.399 8.57545C141.815 8.99017 142.049 9.55265 142.049 10.1392C142.049 10.7257 141.815 11.2881 141.399 11.7029C140.983 12.1176 140.418 12.3506 139.829 12.3506C139.241 12.3506 138.676 12.1176 138.26 11.7029C137.844 11.2881 137.61 10.7257 137.61 10.1392ZM138.028 34.3673V16.8896C138.028 16.4135 138.217 15.9568 138.555 15.6201C138.893 15.2834 139.351 15.0942 139.829 15.0942C140.307 15.0942 140.766 15.2834 141.103 15.6201C141.441 15.9568 141.631 16.4135 141.631 16.8896V34.3673C141.631 34.8435 141.441 35.3002 141.103 35.6369C140.766 35.9736 140.307 36.1627 139.829 36.1627C139.351 36.1627 138.893 35.9736 138.555 35.6369C138.217 35.3002 138.028 34.8435 138.028 34.3673Z" fill="#313333"/>
<path d="M164.547 17.534L151.927 43.7037C151.829 43.9228 151.689 44.1202 151.514 44.2843C151.338 44.4484 151.132 44.5758 150.906 44.6591C150.68 44.7424 150.44 44.7798 150.2 44.7691C149.96 44.7585 149.724 44.7 149.507 44.5972C149.289 44.4943 149.095 44.3491 148.935 44.1702C148.775 43.9913 148.652 43.7822 148.575 43.5554C148.497 43.3285 148.466 43.0885 148.483 42.8494C148.5 42.6103 148.564 42.377 148.673 42.1632L152.059 35.1091L143.64 17.5452C143.531 17.3315 143.466 17.0981 143.45 16.859C143.433 16.6199 143.464 16.3799 143.542 16.153C143.619 15.9262 143.742 15.7171 143.902 15.5382C144.062 15.3593 144.256 15.2141 144.474 15.1112C144.691 15.0084 144.927 14.9499 145.167 14.9393C145.407 14.9286 145.647 14.9661 145.873 15.0493C146.098 15.1326 146.305 15.26 146.48 15.4241C146.656 15.5882 146.796 15.7856 146.894 16.0047L154.082 31.256L161.29 15.9935C161.495 15.563 161.863 15.2314 162.314 15.0715C162.764 14.9115 163.26 14.9365 163.692 15.1408C164.124 15.345 164.457 15.7119 164.617 16.1608C164.778 16.6096 164.753 17.1035 164.547 17.534Z" fill="#313333"/>
<path d="M185.895 16.8897V34.3674C185.895 34.8435 185.705 35.3002 185.367 35.6369C185.029 35.9736 184.571 36.1628 184.093 36.1628C183.615 36.1628 183.157 35.9736 182.819 35.6369C182.481 35.3002 182.291 34.8435 182.291 34.3674V32.8681C181.399 33.9847 180.265 34.8858 178.974 35.5037C177.683 36.1217 176.268 36.4405 174.836 36.4364C169.377 36.4364 164.954 31.9386 164.954 25.6454C164.954 19.3522 169.377 14.8506 174.836 14.8506C176.267 14.8455 177.68 15.1624 178.971 15.7777C180.262 16.3929 181.397 17.2907 182.291 18.4039V16.9046C182.291 16.4285 182.481 15.9718 182.819 15.6351C183.157 15.2984 183.615 15.1093 184.093 15.1093C184.571 15.1093 185.029 15.2984 185.367 15.6351C185.705 15.9718 185.895 16.4285 185.895 16.9046V16.8897ZM182.412 25.6304C182.412 21.2488 179.331 18.134 175.528 18.134C171.725 18.134 168.648 21.26 168.648 25.6304C168.648 30.0008 171.729 33.1267 175.528 33.1267C179.327 33.1267 182.412 30.0083 182.412 25.6304Z" fill="#313333"/>
<path d="M202.86 35.7917C199.621 36.8187 196.465 36.6501 194.43 34.3862C192.783 32.7595 192.38 30.6642 192.38 27.9393V18.8088H189.292C188.854 18.8088 188.434 18.6354 188.124 18.3268C187.814 18.0182 187.64 17.5997 187.64 17.1633C187.64 16.7269 187.814 16.3084 188.124 15.9998C188.434 15.6912 188.854 15.5179 189.292 15.5179H192.38V10.4428C192.38 10.2071 192.427 9.9736 192.517 9.75578C192.608 9.53795 192.741 9.34003 192.908 9.17331C193.075 9.0066 193.274 8.87435 193.492 8.78413C193.711 8.6939 193.945 8.64746 194.182 8.64746C194.419 8.64746 194.653 8.6939 194.871 8.78413C195.09 8.87435 195.289 9.0066 195.456 9.17331C195.623 9.34003 195.756 9.53795 195.847 9.75578C195.937 9.9736 195.984 10.2071 195.984 10.4428V15.5179H201.529C201.966 15.5179 202.387 15.6912 202.696 15.9998C203.006 16.3084 203.18 16.7269 203.18 17.1633C203.18 17.5997 203.006 18.0182 202.696 18.3268C202.387 18.6354 201.966 18.8088 201.529 18.8088H195.984V28.4341C195.984 30.3082 196.3 31.5151 197.139 32.3434C198.361 33.5353 200.129 33.2767 202.029 32.7632C202.242 32.7046 202.465 32.6915 202.683 32.725C202.902 32.7584 203.111 32.8376 203.296 32.9573C203.482 33.077 203.64 33.2345 203.76 33.4194C203.88 33.6043 203.959 33.8124 203.992 34.0301C204.051 34.4107 203.969 34.7997 203.76 35.1241C203.552 35.4484 203.232 35.6858 202.86 35.7917Z" fill="#313333"/>
<path d="M53.1489 54.349C52.7092 54.0915 52.3469 53.7213 52.0994 53.277C51.8426 52.8025 51.7081 52.2718 51.7081 51.7327C51.7081 51.1936 51.8426 50.663 52.0994 50.1885C52.3501 49.743 52.7154 49.3721 53.1577 49.1139C53.6 48.8558 54.1034 48.7197 54.616 48.7197C55.1286 48.7197 55.6319 48.8558 56.0742 49.1139C56.5165 49.3721 56.8818 49.743 57.1325 50.1885C57.3893 50.663 57.5238 51.1936 57.5238 51.7327C57.5238 52.2718 57.3893 52.8025 57.1325 53.277C56.8837 53.7216 56.52 54.0917 56.0792 54.349C55.6327 54.602 55.1278 54.735 54.6141 54.735C54.1004 54.735 53.5955 54.602 53.1489 54.349ZM55.7407 53.828C56.0837 53.6211 56.3644 53.3258 56.5532 52.9734C56.7486 52.5888 56.8504 52.1638 56.8504 51.7327C56.8504 51.3017 56.7486 50.8767 56.5532 50.4921C56.3639 50.139 56.0834 49.8427 55.7407 49.6338C55.3994 49.4311 55.0095 49.3241 54.6122 49.3241C54.2149 49.3241 53.825 49.4311 53.4837 49.6338C53.1387 49.8406 52.8556 50.1357 52.6636 50.4884C52.4659 50.8722 52.3628 51.2975 52.3628 51.729C52.3628 52.1605 52.4659 52.5858 52.6636 52.9696C52.8525 53.3221 53.1332 53.6173 53.4762 53.8242C53.8166 54.0293 54.2069 54.1376 54.6047 54.1376C55.0025 54.1376 55.3927 54.0293 55.7332 53.8242L55.7407 53.828Z" fill="#989898"/>
<path d="M62.8201 49.022C63.1837 49.2237 63.4823 49.5239 63.6816 49.8879C63.8998 50.2957 64.0086 50.7527 63.9975 51.2147V54.3482C63.9979 54.391 63.9894 54.4333 63.9726 54.4727C63.9557 54.512 63.9309 54.5475 63.8997 54.5768C63.8705 54.607 63.8354 54.6308 63.7966 54.6469C63.7578 54.663 63.7161 54.6711 63.674 54.6705C63.6319 54.6715 63.5901 54.6637 63.5512 54.6476C63.5123 54.6314 63.4773 54.6073 63.4483 54.5768C63.4171 54.5475 63.3924 54.512 63.3755 54.4727C63.3587 54.4333 63.3502 54.391 63.3505 54.3482V51.2147C63.3645 50.9603 63.3248 50.7059 63.2341 50.4677C63.1434 50.2294 63.0037 50.0128 62.8239 49.8317C62.6507 49.6671 62.4465 49.5383 62.2231 49.4527C61.9998 49.3672 61.7616 49.3265 61.5224 49.3331C61.1825 49.3276 60.8473 49.413 60.5518 49.5805C60.2661 49.7477 60.0309 49.9885 59.871 50.2777C59.6999 50.586 59.6129 50.9337 59.6189 51.2859V54.3482C59.62 54.3907 59.6122 54.433 59.596 54.4724C59.5798 54.5117 59.5556 54.5473 59.5249 54.5768C59.495 54.6071 59.4592 54.631 59.4198 54.6471C59.3803 54.6632 59.3381 54.6712 59.2954 54.6705C59.2534 54.6711 59.2117 54.663 59.1729 54.6469C59.1341 54.6308 59.099 54.607 59.0697 54.5768C59.0385 54.5475 59.0138 54.512 58.9969 54.4727C58.9801 54.4333 58.9716 54.391 58.9719 54.3482V49.1195C58.9716 49.0767 58.9801 49.0344 58.9969 48.995C59.0138 48.9557 59.0385 48.9202 59.0697 48.8909C59.099 48.8607 59.1341 48.8369 59.1729 48.8208C59.2117 48.8047 59.2534 48.7966 59.2954 48.7972C59.3381 48.7966 59.3803 48.8045 59.4198 48.8206C59.4592 48.8367 59.495 48.8606 59.5249 48.8909C59.5556 48.9204 59.5798 48.956 59.596 48.9953C59.6122 49.0347 59.62 49.077 59.6189 49.1195V49.7867C59.8291 49.4563 60.1222 49.1863 60.4691 49.0033C60.8321 48.8151 61.2354 48.7168 61.6446 48.7168C62.0539 48.7168 62.4571 48.8151 62.8201 49.0033V49.022Z" fill="#989898"/>
<path d="M65.7806 54.5657C65.7494 54.5363 65.7246 54.5009 65.7077 54.4615C65.6909 54.4222 65.6824 54.3798 65.6827 54.3371V46.5671C65.6832 46.5034 65.7026 46.4414 65.7384 46.3887C65.7742 46.336 65.8249 46.295 65.884 46.271C65.9431 46.2469 66.0081 46.2409 66.0707 46.2535C66.1333 46.2662 66.1907 46.2971 66.2357 46.3422C66.2659 46.3713 66.2899 46.4063 66.3061 46.445C66.3222 46.4836 66.3303 46.5252 66.3298 46.5671V54.3483C66.3293 54.4115 66.3102 54.4732 66.2749 54.5256C66.2395 54.5781 66.1895 54.6191 66.131 54.6434C66.0725 54.6678 66.008 54.6745 65.9457 54.6627C65.8834 54.6508 65.826 54.621 65.7806 54.5769V54.5657Z" fill="#989898"/>
<path d="M68.0527 47.8301C68.0093 47.7886 67.9751 47.7384 67.9524 47.6829C67.9297 47.6274 67.919 47.5677 67.921 47.5078C67.9193 47.4479 67.9301 47.3883 67.9527 47.3328C67.9754 47.2773 68.0094 47.2271 68.0527 47.1854C68.093 47.1441 68.1412 47.1112 68.1945 47.0887C68.2478 47.0663 68.3051 47.0547 68.363 47.0547C68.4209 47.0547 68.4782 47.0663 68.5315 47.0887C68.5848 47.1112 68.633 47.1441 68.6733 47.1854C68.7575 47.2733 68.8045 47.3901 68.8045 47.5115C68.8045 47.633 68.7575 47.7498 68.6733 47.8376C68.6321 47.8778 68.5833 47.9094 68.5297 47.9306C68.4761 47.9518 68.4188 47.9623 68.3611 47.9613C68.3035 47.9612 68.2465 47.9495 68.1935 47.927C68.1405 47.9045 68.0926 47.8715 68.0527 47.8301ZM68.1354 54.5768C68.1047 54.5473 68.0805 54.5117 68.0643 54.4723C68.0481 54.433 68.0403 54.3907 68.0414 54.3482V49.1195C68.0365 49.0745 68.0412 49.029 68.0551 48.9859C68.069 48.9428 68.0919 48.9032 68.1223 48.8695C68.1526 48.8358 68.1897 48.8089 68.2312 48.7904C68.2727 48.772 68.3176 48.7624 68.363 48.7624C68.4084 48.7624 68.4533 48.772 68.4948 48.7904C68.5363 48.8089 68.5734 48.8358 68.6038 48.8695C68.6341 48.9032 68.657 48.9428 68.6709 48.9859C68.6849 49.029 68.6895 49.0745 68.6846 49.1195V54.3482C68.6842 54.4114 68.6651 54.4731 68.6298 54.5255C68.5944 54.578 68.5444 54.619 68.4859 54.6433C68.4273 54.6677 68.3629 54.6744 68.3006 54.6626C68.2383 54.6507 68.1809 54.6209 68.1354 54.5768Z" fill="#989898"/>
<path d="M74.2669 49.0228C74.6321 49.2223 74.9314 49.5231 75.1284 49.8887C75.3497 50.2954 75.46 50.753 75.4481 51.2155V54.349C75.4485 54.3917 75.4399 54.4341 75.4231 54.4735C75.4063 54.5128 75.3815 54.5483 75.3503 54.5776C75.3049 54.6217 75.2474 54.6515 75.1851 54.6633C75.1228 54.6752 75.0584 54.6685 74.9999 54.6441C74.9414 54.6198 74.8913 54.5788 74.856 54.5263C74.8206 54.4738 74.8015 54.4122 74.8011 54.349V51.2155C74.8177 50.9693 74.782 50.7223 74.6965 50.4908C74.611 50.2592 74.4774 50.0481 74.3046 49.8713C74.1318 49.6945 73.9236 49.556 73.6935 49.4647C73.4634 49.3734 73.2166 49.3314 72.9692 49.3414C72.6304 49.3356 72.2964 49.4211 72.0024 49.5888C71.7167 49.756 71.4815 49.9968 71.3215 50.286C71.1504 50.5943 71.0635 50.9419 71.0695 51.2942V54.349C71.0698 54.3917 71.0613 54.4341 71.0445 54.4735C71.0277 54.5128 71.0029 54.5483 70.9717 54.5776C70.9118 54.6371 70.8306 54.6705 70.746 54.6705C70.6614 54.6705 70.5802 54.6371 70.5203 54.5776C70.4891 54.5483 70.4643 54.5128 70.4475 54.4735C70.4307 54.4341 70.4222 54.3917 70.4225 54.349V49.1203C70.4222 49.0775 70.4307 49.0351 70.4475 48.9958C70.4643 48.9565 70.4891 48.921 70.5203 48.8916C70.5497 48.8617 70.5848 48.838 70.6236 48.8217C70.6623 48.8055 70.704 48.7971 70.746 48.7971C70.788 48.7971 70.8297 48.8055 70.8684 48.8217C70.9072 48.838 70.9423 48.8617 70.9717 48.8916C71.0029 48.921 71.0277 48.9565 71.0445 48.9958C71.0613 49.0351 71.0698 49.0775 71.0695 49.1203V49.7875C71.2797 49.4571 71.5727 49.1871 71.9196 49.0041C72.2771 48.8181 72.675 48.7229 73.0782 48.7267C73.4934 48.722 73.9028 48.8239 74.2669 49.0228Z" fill="#989898"/>
<path d="M78.2017 54.349C77.7813 54.079 77.439 53.7043 77.2087 53.262C76.96 52.7945 76.8308 52.2731 76.8325 51.744C76.8286 51.2063 76.9578 50.6759 77.2087 50.1997C77.436 49.7604 77.7777 49.3902 78.198 49.1278C78.6206 48.8694 79.1078 48.7351 79.6035 48.7404C80.0993 48.7457 80.5835 48.8904 81.0004 49.1577C81.4213 49.4368 81.757 49.8258 81.9709 50.2822C82.1999 50.7763 82.3118 51.3161 82.2982 51.8602C82.2982 51.9387 82.2669 52.014 82.2112 52.0695C82.1554 52.1251 82.0799 52.1563 82.001 52.1563H77.5397C77.601 52.7035 77.8494 53.213 78.2431 53.5993C78.4215 53.7787 78.6344 53.9203 78.869 54.0156C79.1037 54.1109 79.3552 54.158 79.6086 54.1541C79.942 54.1589 80.2734 54.1031 80.5866 53.9891C80.927 53.8528 81.2554 53.6886 81.5684 53.4981C81.6131 53.4654 81.6673 53.4483 81.7227 53.4494C81.7639 53.4482 81.8049 53.4556 81.8431 53.4711C81.8814 53.4866 81.9159 53.5098 81.9446 53.5394C81.9732 53.5664 81.996 53.5989 82.0115 53.635C82.027 53.6711 82.035 53.71 82.0349 53.7492C82.0354 53.8028 82.0213 53.8555 81.9942 53.9017C81.967 53.9479 81.9278 53.9859 81.8807 54.0116C81.5221 54.228 81.1443 54.4112 80.7522 54.5589C80.3817 54.6905 79.9906 54.7552 79.5973 54.75C79.1028 54.7548 78.6177 54.6154 78.2017 54.349ZM81.6286 51.5753C81.6128 51.1716 81.5047 50.7767 81.3127 50.4209C81.1356 50.0942 80.8763 49.8191 80.5603 49.6225C80.261 49.4356 79.9148 49.3365 79.5616 49.3365C79.2083 49.3365 78.8622 49.4356 78.5629 49.6225C78.2451 49.817 77.9854 50.0927 77.8105 50.4209C77.619 50.7772 77.5097 51.1716 77.4908 51.5753H81.6286Z" fill="#989898"/>
<path d="M92.4397 54.3487C92.4401 54.3991 92.4284 54.449 92.4055 54.494C92.3826 54.539 92.3491 54.5779 92.308 54.6073C92.2551 54.6404 92.1936 54.6573 92.1312 54.656C92.0797 54.6585 92.0284 54.6477 91.9823 54.6247C91.9362 54.6017 91.8968 54.5673 91.8679 54.5248L89.7501 51.4738L88.4711 52.5983V54.3487C88.4714 54.3914 88.4629 54.4338 88.4461 54.4731C88.4293 54.5125 88.4045 54.5479 88.3733 54.5773C88.344 54.6074 88.309 54.6313 88.2701 54.6474C88.2313 54.6635 88.1896 54.6715 88.1476 54.671C88.105 54.6716 88.0627 54.6636 88.0232 54.6475C87.9838 54.6314 87.948 54.6075 87.9181 54.5773C87.8874 54.5478 87.8632 54.5122 87.847 54.4728C87.8308 54.4335 87.823 54.3912 87.8241 54.3487V46.5675C87.8235 46.5256 87.8316 46.484 87.8478 46.4453C87.8639 46.4067 87.8879 46.3717 87.9181 46.3426C87.9479 46.3118 87.9835 46.2874 88.0229 46.2706C88.0623 46.2539 88.1047 46.2452 88.1476 46.2451C88.2325 46.2479 88.3131 46.2828 88.3732 46.3426C88.4333 46.4025 88.4683 46.4829 88.4711 46.5675V51.8149L91.7701 48.8613C91.7985 48.8328 91.8326 48.8104 91.8701 48.7956C91.9077 48.7807 91.9479 48.7738 91.9883 48.7751C92.0331 48.7763 92.0772 48.7866 92.118 48.8052C92.1587 48.8239 92.1952 48.8507 92.2252 48.8838C92.2747 48.9438 92.3001 49.0199 92.2967 49.0975C92.2973 49.141 92.2882 49.1841 92.27 49.2237C92.2518 49.2632 92.2249 49.2982 92.1914 49.3261L90.2278 51.0653L92.3945 54.1763C92.427 54.2277 92.4427 54.2879 92.4397 54.3487Z" fill="#989898"/>
<path d="M98.481 48.8912C98.5117 48.9208 98.5359 48.9564 98.5521 48.9957C98.5682 49.0351 98.5761 49.0774 98.575 49.1199V54.3486C98.5745 54.4118 98.5555 54.4734 98.5201 54.5259C98.4848 54.5784 98.4347 54.6194 98.3762 54.6437C98.3177 54.6681 98.2533 54.6748 98.191 54.6629C98.1287 54.6511 98.0712 54.6213 98.0258 54.5772C97.9946 54.5478 97.9698 54.5124 97.953 54.4731C97.9362 54.4337 97.9276 54.3913 97.928 54.3486V53.6814C97.7194 54.0108 97.4275 54.2797 97.0816 54.461C96.7189 54.6505 96.3156 54.7495 95.9061 54.7495C95.4966 54.7495 95.0932 54.6505 94.7306 54.461C94.3654 54.2616 94.0661 53.9608 93.8691 53.5952C93.6512 53.1873 93.5424 52.7303 93.5532 52.2683V49.1461C93.5483 49.1011 93.5529 49.0556 93.5669 49.0125C93.5808 48.9694 93.6037 48.9298 93.634 48.8961C93.6644 48.8624 93.7015 48.8355 93.743 48.817C93.7844 48.7986 93.8294 48.7891 93.8748 48.7891C93.9202 48.7891 93.9651 48.7986 94.0066 48.817C94.0481 48.8355 94.0852 48.8624 94.1155 48.8961C94.1459 48.9298 94.1687 48.9694 94.1827 49.0125C94.1966 49.0556 94.2013 49.1011 94.1964 49.1461V52.2796C94.1798 52.5258 94.2155 52.7728 94.301 53.0043C94.3865 53.2359 94.52 53.447 94.6929 53.6238C94.8657 53.8006 95.0739 53.9391 95.304 54.0304C95.5341 54.1217 95.7809 54.1637 96.0283 54.1537C96.3674 54.1583 96.7015 54.0716 96.9951 53.9025C97.2835 53.7376 97.5205 53.4963 97.6797 53.2054C97.8479 52.8974 97.9334 52.5514 97.928 52.2009V49.1386C97.9276 49.0959 97.9362 49.0535 97.953 49.0141C97.9698 48.9748 97.9946 48.9393 98.0258 48.91C98.0864 48.8502 98.1682 48.8167 98.2534 48.8167C98.3386 48.8167 98.4204 48.8502 98.481 48.91V48.8912Z" fill="#989898"/>
<path d="M103.886 54.0448C103.948 54.091 103.988 54.1593 104 54.235C104.011 54.3107 103.992 54.3877 103.947 54.4496C103.93 54.4754 103.909 54.4976 103.884 54.515C103.858 54.5324 103.83 54.5446 103.8 54.5508C103.45 54.659 103.087 54.7195 102.72 54.7307C102.373 54.7389 102.031 54.6393 101.742 54.4459C101.492 54.2692 101.3 54.0227 101.189 53.7375C101.071 53.3939 101.015 53.0323 101.024 52.6693V49.5358H100.008C99.929 49.5339 99.8535 49.5017 99.7975 49.4458C99.7415 49.39 99.7092 49.3149 99.7073 49.2359C99.7062 49.196 99.7137 49.1562 99.7293 49.1194C99.7448 49.0826 99.7681 49.0494 99.7975 49.0223C99.8254 48.9953 99.8584 48.9741 99.8946 48.96C99.9307 48.9458 99.9693 48.939 100.008 48.9398H101.024V47.4031C101.024 47.3399 101.043 47.2782 101.079 47.2257C101.114 47.1733 101.164 47.1323 101.223 47.1079C101.281 47.0836 101.346 47.0769 101.408 47.0887C101.47 47.1005 101.528 47.1303 101.573 47.1744C101.604 47.2038 101.629 47.2393 101.646 47.2786C101.663 47.3179 101.671 47.3603 101.671 47.4031V48.9398H103.476C103.516 48.9377 103.556 48.9438 103.593 48.9579C103.63 48.9721 103.663 48.9938 103.691 49.0217C103.719 49.0497 103.741 49.0832 103.755 49.1201C103.77 49.157 103.776 49.1965 103.774 49.2359C103.774 49.2746 103.768 49.3131 103.753 49.3491C103.739 49.3852 103.718 49.418 103.691 49.4458C103.664 49.4751 103.63 49.4983 103.593 49.5138C103.556 49.5294 103.517 49.5368 103.476 49.5358H101.671V52.6468C101.663 52.9092 101.691 53.1714 101.754 53.4264C101.804 53.6126 101.907 53.7805 102.051 53.9099C102.247 54.0776 102.499 54.1671 102.758 54.161C102.94 54.1585 103.12 54.1334 103.296 54.0861L103.642 54.0036C103.683 53.9877 103.727 53.9832 103.77 53.9904C103.813 53.9977 103.853 54.0165 103.886 54.0448Z" fill="#989898"/>
<path d="M109.939 48.8914C109.97 48.9209 109.994 48.9565 110.01 48.9959C110.026 49.0352 110.034 49.0775 110.033 49.12V54.3487C110.038 54.3937 110.033 54.4392 110.019 54.4823C110.005 54.5254 109.983 54.5651 109.952 54.5987C109.922 54.6324 109.885 54.6594 109.843 54.6778C109.802 54.6962 109.757 54.7058 109.711 54.7058C109.666 54.7058 109.621 54.6962 109.58 54.6778C109.538 54.6594 109.501 54.6324 109.471 54.5987C109.44 54.5651 109.417 54.5254 109.404 54.4823C109.39 54.4392 109.385 54.3937 109.39 54.3487V53.6815C109.18 54.0112 108.887 54.2801 108.54 54.4612C108.183 54.65 107.785 54.7467 107.381 54.7423C106.965 54.7467 106.554 54.6447 106.189 54.4462C105.824 54.2455 105.525 53.945 105.327 53.5803C105.109 53.1724 105 52.7155 105.011 52.2535V49.1313C105.011 49.0889 105.019 49.0468 105.035 49.0076C105.052 48.9684 105.075 48.9327 105.105 48.9026C105.135 48.8724 105.171 48.8485 105.21 48.8324C105.25 48.8163 105.292 48.8083 105.335 48.8089C105.377 48.8084 105.418 48.8164 105.457 48.8325C105.496 48.8487 105.531 48.8725 105.56 48.9026C105.592 48.932 105.616 48.9675 105.633 49.0068C105.65 49.0461 105.659 49.0885 105.658 49.1313V52.2647C105.642 52.5106 105.677 52.7572 105.763 52.9886C105.848 53.2199 105.981 53.4308 106.153 53.6075C106.326 53.7842 106.534 53.9228 106.763 54.0144C106.993 54.1059 107.239 54.1483 107.486 54.1388C107.827 54.1442 108.162 54.0574 108.457 53.8877C108.743 53.7216 108.979 53.4805 109.138 53.1905C109.309 52.8836 109.396 52.5371 109.39 52.186V49.1238C109.39 49.0606 109.409 48.9989 109.445 48.9464C109.48 48.894 109.53 48.853 109.589 48.8286C109.647 48.8043 109.712 48.7976 109.774 48.8094C109.836 48.8212 109.894 48.851 109.939 48.8951V48.8914Z" fill="#989898"/>
<path d="M116.078 49.1007C116.51 49.3595 116.864 49.7299 117.101 50.1727C117.348 50.6503 117.477 51.1798 117.477 51.717C117.477 52.2542 117.348 52.7836 117.101 53.2612C116.863 53.7033 116.509 54.0734 116.078 54.3332C115.648 54.5872 115.156 54.7169 114.656 54.708C114.2 54.7108 113.75 54.6 113.347 54.3857C112.947 54.1774 112.608 53.8702 112.362 53.4936V54.3482C112.362 54.3909 112.353 54.4333 112.337 54.4727C112.32 54.512 112.295 54.5475 112.264 54.5768C112.218 54.6185 112.161 54.6462 112.1 54.6566C112.039 54.6671 111.976 54.6598 111.919 54.6358C111.862 54.6117 111.813 54.5718 111.778 54.5208C111.743 54.4698 111.724 54.4099 111.722 54.3482V46.567C111.722 46.5251 111.73 46.4835 111.746 46.4449C111.762 46.4062 111.786 46.3712 111.816 46.3421C111.862 46.2987 111.919 46.2693 111.981 46.2576C112.043 46.2459 112.107 46.2524 112.166 46.2761C112.224 46.2999 112.274 46.34 112.311 46.3916C112.347 46.4432 112.367 46.5041 112.369 46.567V49.9403C112.621 49.5665 112.961 49.2591 113.358 49.0445C113.781 48.8244 114.254 48.7151 114.731 48.7269C115.208 48.7387 115.674 48.8712 116.086 49.112L116.078 49.1007ZM115.702 53.8122C116.045 53.6053 116.326 53.3101 116.514 52.9576C116.71 52.573 116.812 52.148 116.812 51.717C116.812 51.2859 116.71 50.8609 116.514 50.4763C116.325 50.1233 116.045 49.8269 115.702 49.618C115.361 49.4153 114.971 49.3083 114.573 49.3083C114.176 49.3083 113.786 49.4153 113.445 49.618C113.102 49.8269 112.822 50.1233 112.632 50.4763C112.435 50.8602 112.332 51.2855 112.332 51.717C112.332 52.1484 112.435 52.5737 112.632 52.9576C112.821 53.3101 113.102 53.6053 113.445 53.8122C113.785 54.0172 114.176 54.1256 114.573 54.1256C114.971 54.1256 115.361 54.0172 115.702 53.8122Z" fill="#989898"/>
<path d="M123.428 54.3489C123.431 54.3975 123.422 54.446 123.401 54.4899C123.38 54.5338 123.348 54.5717 123.308 54.6C123.252 54.6482 123.179 54.6737 123.105 54.6713C123.058 54.6734 123.011 54.6651 122.967 54.6469C122.924 54.6288 122.885 54.6013 122.853 54.5663L120.818 52.145L118.798 54.5663C118.765 54.6001 118.726 54.6269 118.683 54.6449C118.639 54.663 118.593 54.6719 118.546 54.6713C118.472 54.671 118.4 54.6459 118.343 54.6C118.303 54.5717 118.271 54.5338 118.25 54.4899C118.229 54.446 118.219 54.3975 118.222 54.3489C118.221 54.2745 118.248 54.2023 118.298 54.1465L120.412 51.6577L118.414 49.2964C118.37 49.2381 118.345 49.1672 118.343 49.094C118.34 49.0454 118.349 48.9969 118.37 48.953C118.392 48.9091 118.423 48.8712 118.463 48.8428C118.52 48.7964 118.592 48.7713 118.666 48.7716C118.713 48.7719 118.76 48.7816 118.803 48.8003C118.847 48.819 118.886 48.8462 118.918 48.8803L120.818 51.1667L122.733 48.8803C122.764 48.8449 122.803 48.8168 122.846 48.798C122.89 48.7792 122.937 48.7702 122.985 48.7716C123.059 48.7713 123.13 48.7964 123.188 48.8428C123.222 48.8689 123.25 48.9019 123.271 48.9395C123.291 48.9771 123.304 49.0186 123.307 49.0613C123.311 49.104 123.305 49.147 123.291 49.1875C123.277 49.228 123.255 49.2651 123.225 49.2964L121.239 51.6577L123.342 54.1465C123.369 54.1726 123.391 54.204 123.406 54.2388C123.421 54.2736 123.429 54.3111 123.428 54.3489Z" fill="#989898"/>
<path d="M125.573 54.3484C125.132 54.0911 124.768 53.721 124.519 53.2764C124.265 52.8012 124.132 52.2708 124.132 51.7322C124.132 51.1935 124.265 50.6631 124.519 50.1879C124.771 49.7425 125.136 49.3718 125.579 49.1137C126.021 48.8557 126.525 48.7197 127.038 48.7197C127.551 48.7197 128.054 48.8557 128.497 49.1137C128.939 49.3718 129.305 49.7425 129.556 50.1879C129.81 50.6632 129.943 51.1936 129.943 51.7322C129.943 52.2708 129.81 52.8011 129.556 53.2764C129.17 53.9447 128.534 54.433 127.787 54.634C127.04 54.835 126.244 54.7323 125.573 54.3484ZM128.161 53.8274C128.504 53.62 128.786 53.325 128.977 52.9728C129.172 52.5882 129.274 52.1632 129.274 51.7322C129.274 51.3011 129.172 50.8761 128.977 50.4915C128.786 50.1386 128.504 49.8425 128.161 49.6332C127.82 49.4297 127.43 49.3223 127.032 49.3223C126.635 49.3223 126.245 49.4297 125.904 49.6332C125.558 49.8403 125.276 50.137 125.087 50.4915C124.892 50.8761 124.79 51.3011 124.79 51.7322C124.79 52.1632 124.892 52.5882 125.087 52.9728C125.276 53.3263 125.559 53.6217 125.904 53.8274C126.244 54.0332 126.634 54.1421 127.032 54.1421C127.43 54.1421 127.82 54.0332 128.161 53.8274Z" fill="#989898"/>
<path d="M135.248 49.0228C135.613 49.2223 135.912 49.523 136.109 49.8886C136.327 50.2964 136.436 50.7535 136.425 51.2155V54.349C136.43 54.394 136.425 54.4395 136.411 54.4826C136.397 54.5256 136.375 54.5653 136.344 54.599C136.314 54.6327 136.277 54.6596 136.235 54.678C136.194 54.6965 136.149 54.706 136.103 54.706C136.058 54.706 136.013 54.6965 135.972 54.678C135.93 54.6596 135.893 54.6327 135.863 54.599C135.832 54.5653 135.809 54.5256 135.796 54.4826C135.782 54.4395 135.777 54.394 135.782 54.349V51.2155C135.798 50.9693 135.763 50.7223 135.677 50.4907C135.592 50.2591 135.458 50.0481 135.285 49.8713C135.113 49.6945 134.904 49.556 134.674 49.4647C134.444 49.3734 134.197 49.3314 133.95 49.3414C133.611 49.3356 133.277 49.4211 132.983 49.5888C132.696 49.7559 132.46 49.9967 132.298 50.2859C132.13 50.5952 132.045 50.9425 132.05 51.2942V54.349C132.051 54.3917 132.042 54.4341 132.025 54.4734C132.008 54.5128 131.984 54.5482 131.952 54.5776C131.907 54.6217 131.85 54.6515 131.787 54.6633C131.725 54.6751 131.661 54.6685 131.602 54.6441C131.543 54.6197 131.493 54.5788 131.458 54.5263C131.423 54.4738 131.404 54.4122 131.403 54.349V49.1203C131.404 49.0571 131.423 48.9954 131.458 48.9429C131.493 48.8904 131.543 48.8495 131.602 48.8251C131.661 48.8008 131.725 48.7941 131.787 48.8059C131.85 48.8177 131.907 48.8475 131.952 48.8916C131.984 48.921 132.008 48.9564 132.025 48.9958C132.042 49.0351 132.051 49.0775 132.05 49.1203V49.7874C132.259 49.4576 132.551 49.1876 132.897 49.0041C133.255 48.8181 133.655 48.7229 134.059 48.7267C134.474 48.7223 134.883 48.8242 135.248 49.0228Z" fill="#989898"/>
<path d="M143.493 48.8909C143.525 48.9202 143.549 48.9557 143.566 48.995C143.583 49.0344 143.591 49.0767 143.591 49.1195V54.3482C143.591 54.391 143.583 54.4333 143.566 54.4727C143.549 54.512 143.525 54.5475 143.493 54.5769C143.448 54.6209 143.39 54.6508 143.328 54.6626C143.266 54.6744 143.201 54.6677 143.143 54.6434C143.084 54.619 143.034 54.578 142.999 54.5255C142.964 54.4731 142.945 54.4114 142.944 54.3482V53.5274C142.69 53.9004 142.35 54.2065 141.951 54.4194C141.529 54.6415 141.056 54.7522 140.579 54.7411C140.102 54.7299 139.635 54.5973 139.224 54.3557C138.794 54.095 138.44 53.725 138.201 53.2837C137.954 52.8061 137.825 52.2767 137.825 51.7395C137.825 51.2023 137.954 50.6728 138.201 50.1952C138.439 49.7532 138.793 49.383 139.224 49.1233C139.635 48.8825 140.102 48.75 140.579 48.7382C141.056 48.7264 141.528 48.8357 141.951 49.0558C142.349 49.2712 142.69 49.5784 142.944 49.9516V49.1308C142.945 49.0676 142.964 49.0059 142.999 48.9534C143.034 48.9009 143.084 48.86 143.143 48.8356C143.201 48.8113 143.266 48.8046 143.328 48.8164C143.39 48.8282 143.448 48.858 143.493 48.9021V48.8909ZM141.857 53.8235C142.2 53.6166 142.481 53.3213 142.67 52.9689C142.865 52.5843 142.967 52.1593 142.967 51.7282C142.967 51.2972 142.865 50.8722 142.67 50.4876C142.48 50.1345 142.2 49.8382 141.857 49.6293C141.516 49.4266 141.126 49.3196 140.728 49.3196C140.331 49.3196 139.941 49.4266 139.6 49.6293C139.264 49.8408 138.99 50.1369 138.806 50.4876C138.609 50.8715 138.505 51.2968 138.505 51.7282C138.505 52.1597 138.609 52.585 138.806 52.9689C138.995 53.3213 139.276 53.6166 139.619 53.8235C139.959 54.0285 140.349 54.1369 140.747 54.1369C141.145 54.1369 141.535 54.0285 141.876 53.8235H141.857Z" fill="#989898"/>
</g>
<defs>
<linearGradient id="paint0_linear_87_1099" x1="25.7111" y1="2.84847" x2="32.3858" y2="55.6812" gradientUnits="userSpaceOnUse">
<stop stop-color="#37BCAC"/>
<stop offset="1" stop-color="#25AA99"/>
</linearGradient>
<linearGradient id="paint1_linear_87_1099" x1="616.201" y1="504.033" x2="1413.5" y2="5478.86" gradientUnits="userSpaceOnUse">
<stop stop-color="#37BCAC"/>
<stop offset="1" stop-color="#25AA99"/>
</linearGradient>
<clipPath id="clip0_87_1099">
<rect width="204" height="59" fill="white"/>
</clipPath>
</defs>
</svg>
