<svg width="20" height="20" viewBox="0 0 20 20" fill="none" xmlns="http://www.w3.org/2000/svg">
<path d="M1.66669 5.83301L8.47079 10.5959C9.02176 10.9816 9.29725 11.1744 9.59691 11.2491C9.8616 11.3151 10.1384 11.3151 10.4031 11.2491C10.7028 11.1744 10.9783 10.9816 11.5293 10.5959L18.3334 5.83301M5.66669 16.6663H14.3334C15.7335 16.6663 16.4336 16.6663 16.9683 16.3939C17.4387 16.1542 17.8212 15.7717 18.0609 15.3013C18.3334 14.7665 18.3334 14.0665 18.3334 12.6663V7.33301C18.3334 5.93288 18.3334 5.23281 18.0609 4.69803C17.8212 4.22763 17.4387 3.84517 16.9683 3.60549C16.4336 3.33301 15.7335 3.33301 14.3334 3.33301H5.66669C4.26656 3.33301 3.56649 3.33301 3.03171 3.60549C2.56131 3.84517 2.17885 4.22763 1.93917 4.69803C1.66669 5.23281 1.66669 5.93288 1.66669 7.33301V12.6663C1.66669 14.0665 1.66669 14.7665 1.93917 15.3013C2.17885 15.7717 2.56131 16.1542 3.03171 16.3939C3.56649 16.6663 4.26656 16.6663 5.66669 16.6663Z" stroke="#313333" stroke-width="1.5" stroke-linecap="round" stroke-linejoin="round"/>
</svg>
