<svg width="20" height="20" viewBox="0 0 20 20" fill="none" xmlns="http://www.w3.org/2000/svg">
<path d="M11.7081 5.00033C12.522 5.15913 13.2701 5.55721 13.8565 6.14361C14.4429 6.73 14.8409 7.47805 14.9997 8.29199M11.7081 1.66699C13.3991 1.85486 14.9761 2.61214 16.1799 3.8145C17.3838 5.01686 18.1431 6.59283 18.3331 8.28366M8.52222 11.5529C7.52091 10.5516 6.73025 9.41937 6.15025 8.21135C6.10036 8.10744 6.07542 8.05549 6.05625 7.98975C5.98815 7.75612 6.03707 7.46923 6.17874 7.27138C6.21861 7.2157 6.26624 7.16807 6.3615 7.07281C6.65284 6.78147 6.79851 6.6358 6.89375 6.48932C7.25291 5.93691 7.25291 5.22476 6.89375 4.67235C6.79851 4.52587 6.65284 4.3802 6.3615 4.08886L6.19911 3.92647C5.75624 3.4836 5.53481 3.26217 5.29699 3.14188C4.82402 2.90266 4.26547 2.90266 3.7925 3.14188C3.55468 3.26217 3.33325 3.4836 2.89038 3.92647L2.75902 4.05783C2.31767 4.49919 2.09699 4.71986 1.92845 5.01989C1.74143 5.35281 1.60696 5.86989 1.6081 6.25174C1.60912 6.59586 1.67588 6.83105 1.80938 7.30142C2.52686 9.82925 3.88059 12.2145 5.87057 14.2045C7.86055 16.1945 10.2459 17.5482 12.7737 18.2657C13.2441 18.3992 13.4792 18.466 13.8234 18.467C14.2052 18.4681 14.7223 18.3337 15.0552 18.1467C15.3552 17.9781 15.5759 17.7574 16.0173 17.3161L16.1486 17.1847C16.5915 16.7419 16.8129 16.5204 16.9332 16.2826C17.1724 15.8096 17.1724 15.2511 16.9332 14.7781C16.8129 14.5403 16.5915 14.3189 16.1486 13.876L15.9862 13.7136C15.6949 13.4223 15.5492 13.2766 15.4028 13.1814C14.8503 12.8222 14.1382 12.8222 13.5858 13.1814C13.4393 13.2766 13.2936 13.4223 13.0023 13.7136C12.907 13.8089 12.8594 13.8565 12.8037 13.8964C12.6059 14.038 12.319 14.087 12.0854 14.0189C12.0196 13.9997 11.9677 13.9747 11.8638 13.9249C10.6557 13.3449 9.52354 12.5542 8.52222 11.5529Z" stroke="#313333" stroke-width="1.5" stroke-linecap="round" stroke-linejoin="round"/>
</svg>
