<svg width="48" height="48" viewBox="0 0 48 48" fill="none" xmlns="http://www.w3.org/2000/svg">
<g id="Telegram">
<g id="Telegram_2">
<rect id="Rectangle" width="48" height="48" rx="24" fill="#419FD9"/>
<path id="Exclude" fill-rule="evenodd" clip-rule="evenodd" d="M29.3355 35.8841C31.013 36.618 31.642 35.0803 31.642 35.0803L36.0804 12.7834C36.0455 11.2806 34.0185 12.1892 34.0185 12.1892L9.17039 21.9398C9.17039 21.9398 7.98215 22.3591 8.087 23.0931C8.19184 23.827 9.13544 24.1764 9.13544 24.1764L15.3912 26.2733C15.3912 26.2733 17.2784 32.4591 17.6628 33.6474C18.0123 34.8007 18.3268 34.8356 18.3268 34.8356C18.6763 34.9754 18.9908 34.7308 18.9908 34.7308L23.0448 31.0612L29.3355 35.8841ZM30.4189 16.7325C30.4189 16.7325 31.2926 16.2082 31.2576 16.7325C31.2576 16.7325 31.3974 16.8023 30.9431 17.2916C30.5237 17.711 20.6334 26.5878 19.3054 27.7761C19.2005 27.846 19.1306 27.9508 19.1306 28.0906L18.7462 31.3757C18.6763 31.7252 18.222 31.7601 18.1171 31.4456L16.4746 26.0636C16.4047 25.8539 16.4746 25.6093 16.6842 25.4695L30.4189 16.7325Z" fill="white"/>
</g>
</g>
</svg>
